<svg width="1440" height="1466" viewBox="0 0 1440 1466" fill="none" xmlns="http://www.w3.org/2000/svg">
<rect width="1440" height="1466" fill="#0F1D40"/>
<g opacity="0.28">
<line x1="18.2891" y1="576.997" x2="74.6736" y2="576.997" stroke="white" stroke-opacity="0.22" stroke-width="0.741902"/>
<path d="M33.23 418.771H30.9005V427.155H33.23V428.193H27.3393V427.155H29.6838V418.771H27.3393V417.733H33.23V418.771ZM41.2862 422.927C41.8055 422.927 42.2002 423.114 42.4703 423.488C42.7472 423.855 42.8857 424.34 42.8857 424.942V428.193H42.034V425.14C42.034 424.613 41.9578 424.236 41.8055 424.008C41.6532 423.772 41.3762 423.654 40.9746 423.654C40.4691 423.654 40.0675 423.862 39.7697 424.278C39.4789 424.686 39.3335 425.233 39.3335 425.919V428.193H38.4818V425.14C38.4818 424.613 38.4056 424.236 38.2533 424.008C38.1009 423.772 37.824 423.654 37.4223 423.654C36.9169 423.654 36.5152 423.862 36.2175 424.278C35.9267 424.686 35.7813 425.233 35.7813 425.919V428.193H34.9296V423.031H35.7813V423.914L35.6462 424.496H35.8851C36.1206 423.45 36.7368 422.927 37.7339 422.927C38.184 422.927 38.5372 423.069 38.7934 423.353C39.0565 423.63 39.2192 424.011 39.2816 424.496H39.4374C39.6728 423.45 40.2891 422.927 41.2862 422.927ZM45.6865 422.211C45.4718 422.211 45.2918 422.141 45.1464 422.003C45.0079 421.864 44.9386 421.691 44.9386 421.484C44.9386 421.283 45.0079 421.113 45.1464 420.975C45.2918 420.836 45.4718 420.767 45.6865 420.767C45.8942 420.767 46.0708 420.836 46.2162 420.975C46.3616 421.113 46.4343 421.283 46.4343 421.484C46.4343 421.691 46.3616 421.864 46.2162 422.003C46.0708 422.141 45.8942 422.211 45.6865 422.211ZM43.9623 428.193V427.466H45.4164V423.665L44.3466 423.758V423.031L45.541 422.927C45.9911 422.886 46.2162 423.094 46.2162 423.551V427.466H47.6703V428.193H43.9623ZM51.4555 423.654C50.9015 423.654 50.4515 423.859 50.1052 424.267C49.7659 424.676 49.5963 425.223 49.5963 425.908V428.193H48.7446V423.031H49.5963V423.924L49.4613 424.516H49.7002C49.8109 424.032 50.0325 423.647 50.3649 423.364C50.7042 423.073 51.1439 422.927 51.684 422.927C52.2864 422.927 52.7573 423.104 53.0966 423.457C53.4359 423.81 53.6055 424.336 53.6055 425.036V428.193H52.7642V425.15C52.7642 424.617 52.6569 424.236 52.4422 424.008C52.2345 423.772 51.9056 423.654 51.4555 423.654Z" fill="white" fill-opacity="0.23"/>
<path d="M40.4592 443.254H38.1296V451.637H40.4592V452.676H34.5685V451.637H36.9129V443.254H34.5685V442.215H40.4592V443.254ZM41.951 450.09C41.951 449.321 42.1864 448.684 42.6572 448.179C43.135 447.666 43.779 447.41 44.5892 447.41C44.9492 447.41 45.2955 447.476 45.6278 447.607C45.9602 447.732 46.2614 447.957 46.5315 448.283C46.8015 448.601 46.9573 448.996 46.9989 449.467H46.1368C46.0052 448.58 45.4893 448.137 44.5892 448.137C44.0075 448.137 43.5643 448.321 43.2597 448.688C42.955 449.055 42.8027 449.522 42.8027 450.09C42.8027 450.658 42.955 451.128 43.2597 451.502C43.5643 451.869 44.0075 452.053 44.5892 452.053C45.4893 452.053 46.0052 451.61 46.1368 450.723H46.9989C46.9573 451.194 46.8015 451.592 46.5315 451.918C46.2614 452.236 45.9602 452.461 45.6278 452.593C45.2955 452.718 44.9492 452.78 44.5892 452.78C43.779 452.78 43.135 452.527 42.6572 452.022C42.1864 451.509 41.951 450.865 41.951 450.09ZM47.9659 450.09C47.9659 449.328 48.2186 448.691 48.7241 448.179C49.2296 447.666 49.8874 447.41 50.6976 447.41C51.5008 447.41 52.1517 447.666 52.6502 448.179C53.1557 448.691 53.4085 449.328 53.4085 450.09C53.4085 450.858 53.1557 451.499 52.6502 452.011C52.1517 452.524 51.5008 452.78 50.6976 452.78C49.8874 452.78 49.2296 452.524 48.7241 452.011C48.2186 451.499 47.9659 450.858 47.9659 450.09ZM48.8176 450.09C48.8176 450.658 48.9838 451.128 49.3161 451.502C49.6485 451.869 50.109 452.053 50.6976 452.053C51.2861 452.053 51.7431 451.866 52.0686 451.492C52.401 451.118 52.5672 450.651 52.5672 450.09C52.5672 449.529 52.401 449.065 52.0686 448.698C51.7431 448.324 51.2861 448.137 50.6976 448.137C50.109 448.137 49.6485 448.324 49.3161 448.698C48.9838 449.065 48.8176 449.529 48.8176 450.09Z" fill="white" fill-opacity="0.23"/>
<path d="M59.4731 562.349C58.5452 561.823 57.832 561.183 57.3334 560.428C56.8418 559.673 56.596 558.832 56.596 557.904C56.596 556.976 56.8418 556.135 57.3334 555.38C57.832 554.625 58.5452 553.985 59.4731 553.458L59.6912 553.801C57.9878 554.847 57.1361 556.214 57.1361 557.904C57.1361 559.593 57.9878 560.961 59.6912 562.007L59.4731 562.349ZM60.8201 560.885V560.48L63.531 558.029C64.1334 557.482 64.5523 557.028 64.7878 556.668C65.0232 556.301 65.1409 555.927 65.1409 555.546C65.1409 555.089 64.9782 554.715 64.6527 554.424C64.3342 554.134 63.9499 553.988 63.4998 553.988C63.0567 553.988 62.6689 554.099 62.3365 554.321C62.0111 554.542 61.6891 554.881 61.3706 555.338L60.9655 555.068C61.3117 554.542 61.6787 554.151 62.0665 553.895C62.4542 553.638 62.9493 553.51 63.5518 553.51C64.168 553.51 64.6804 553.704 65.089 554.092C65.5045 554.473 65.7122 554.951 65.7122 555.525C65.7122 556.003 65.5772 556.439 65.3071 556.834C65.044 557.229 64.5731 557.734 63.8945 558.351L61.6718 560.366H65.7849V560.885H60.8201ZM67.2997 562.349L67.0816 562.007C68.785 560.961 69.6367 559.593 69.6367 557.904C69.6367 556.214 68.785 554.847 67.0816 553.801L67.2997 553.458C68.2276 553.985 68.9373 554.625 69.429 555.38C69.9275 556.135 70.1768 556.976 70.1768 557.904C70.1768 558.832 69.9275 559.673 69.429 560.428C68.9373 561.183 68.2276 561.823 67.2997 562.349Z" fill="white" fill-opacity="0.23"/>
<path d="M85.8008 572.174L90.7468 577.12L85.8008 582.066" stroke="white" stroke-opacity="0.23" stroke-width="0.741902" stroke-linecap="round" stroke-linejoin="round"/>
<path d="M99.2502 582.432V581.854L103.123 578.352C103.984 577.571 104.582 576.923 104.918 576.408C105.255 575.884 105.423 575.35 105.423 574.806C105.423 574.153 105.19 573.619 104.725 573.203C104.27 572.788 103.721 572.58 103.078 572.58C102.445 572.58 101.891 572.738 101.417 573.055C100.952 573.371 100.492 573.856 100.037 574.509L99.458 574.123C99.9526 573.371 100.477 572.812 101.031 572.446C101.585 572.08 102.292 571.897 103.153 571.897C104.033 571.897 104.765 572.174 105.349 572.728C105.942 573.272 106.239 573.955 106.239 574.776C106.239 575.459 106.046 576.082 105.66 576.646C105.284 577.21 104.612 577.932 103.642 578.812L100.467 581.691H106.343V582.432H99.2502Z" fill="white" fill-opacity="0.23"/>
</g>
<g opacity="0.1">
<path d="M107.812 1285.73H103.818V1300.1H107.812V1301.88H97.7134V1300.1H101.732V1285.73H97.7134V1283.95H107.812V1285.73ZM121.622 1292.86C122.513 1292.86 123.189 1293.18 123.652 1293.82C124.127 1294.45 124.364 1295.28 124.364 1296.31V1301.88H122.904V1296.65C122.904 1295.75 122.774 1295.1 122.513 1294.71C122.251 1294.31 121.777 1294.1 121.088 1294.1C120.222 1294.1 119.533 1294.46 119.023 1295.17C118.524 1295.87 118.275 1296.81 118.275 1297.99V1301.88H116.815V1296.65C116.815 1295.75 116.684 1295.1 116.423 1294.71C116.162 1294.31 115.687 1294.1 114.999 1294.1C114.132 1294.1 113.444 1294.46 112.933 1295.17C112.435 1295.87 112.185 1296.81 112.185 1297.99V1301.88H110.725V1293.04H112.185V1294.55L111.954 1295.55H112.363C112.767 1293.75 113.823 1292.86 115.533 1292.86C116.304 1292.86 116.91 1293.1 117.349 1293.59C117.8 1294.06 118.079 1294.72 118.186 1295.55H118.453C118.856 1293.75 119.913 1292.86 121.622 1292.86ZM129.166 1291.63C128.798 1291.63 128.489 1291.51 128.24 1291.27C128.002 1291.04 127.884 1290.74 127.884 1290.38C127.884 1290.04 128.002 1289.75 128.24 1289.51C128.489 1289.27 128.798 1289.15 129.166 1289.15C129.522 1289.15 129.824 1289.27 130.074 1289.51C130.323 1289.75 130.448 1290.04 130.448 1290.38C130.448 1290.74 130.323 1291.04 130.074 1291.27C129.824 1291.51 129.522 1291.63 129.166 1291.63ZM126.21 1301.88V1300.64H128.703V1294.12L126.869 1294.28V1293.04L128.916 1292.86C129.688 1292.79 130.074 1293.14 130.074 1293.93V1300.64H132.566V1301.88H126.21ZM139.055 1294.1C138.106 1294.1 137.334 1294.45 136.741 1295.15C136.159 1295.85 135.868 1296.79 135.868 1297.97V1301.88H134.408V1293.04H135.868V1294.57L135.637 1295.58H136.046C136.236 1294.75 136.616 1294.09 137.186 1293.61C137.767 1293.11 138.521 1292.86 139.447 1292.86C140.48 1292.86 141.287 1293.16 141.869 1293.77C142.45 1294.37 142.741 1295.27 142.741 1296.47V1301.88H141.299V1296.67C141.299 1295.75 141.115 1295.1 140.747 1294.71C140.391 1294.31 139.827 1294.1 139.055 1294.1Z" fill="white" fill-opacity="0.35"/>
</g>
<path opacity="0.55" d="M58.7145 1150.16C60.1445 1150.16 61.2495 1150.66 62.0295 1151.67C62.8095 1152.67 63.1995 1153.98 63.1995 1155.59C63.1995 1157.21 62.8095 1158.52 62.0295 1159.53C61.2495 1160.53 60.1445 1161.03 58.7145 1161.03C57.2745 1161.03 56.1595 1160.53 55.3695 1159.53C54.5895 1158.52 54.1995 1157.21 54.1995 1155.59C54.1995 1153.98 54.5895 1152.67 55.3695 1151.67C56.1595 1150.66 57.2745 1150.16 58.7145 1150.16ZM58.7145 1151.21C57.6445 1151.21 56.8245 1151.61 56.2545 1152.41C55.6945 1153.21 55.4145 1154.27 55.4145 1155.59C55.4145 1156.58 55.5745 1157.43 55.8945 1158.15L60.8745 1152.08C60.3145 1151.5 59.5945 1151.21 58.7145 1151.21ZM58.7145 1159.98C59.7745 1159.98 60.5845 1159.58 61.1445 1158.78C61.7045 1157.98 61.9845 1156.92 61.9845 1155.59C61.9845 1154.6 61.8245 1153.74 61.5045 1153.02L56.5245 1159.1C57.0845 1159.69 57.8145 1159.98 58.7145 1159.98ZM65.939 1158.44L67.034 1158.72L65.864 1163.07L64.769 1162.77L65.939 1158.44ZM77.4342 1157.49V1158.54H76.0692V1160.88H74.8392V1158.54H69.2292V1156.35C70.4992 1155.81 71.5642 1155.02 72.4242 1153.97C73.2842 1152.92 73.7892 1151.7 73.9392 1150.31H75.1692C74.7392 1153.53 72.8792 1155.87 69.5892 1157.34V1157.7L70.4592 1157.49H74.8392V1153.65H76.0692V1157.49H77.4342ZM90.5309 1160.88H89.0909L86.4359 1157.64C86.3159 1157.67 86.1909 1157.69 86.0609 1157.69H85.5359V1160.88H84.3059V1153.43H85.5359V1156.59H86.1509L88.0859 1153.98C88.3559 1153.61 88.7209 1153.43 89.1809 1153.43H90.3509V1154.48H89.1359L87.3059 1156.94L90.5309 1160.88ZM92.1282 1160.88V1150.31H94.9332C96.3232 1150.31 97.3482 1150.49 98.0082 1150.86C98.6682 1151.23 98.9982 1151.91 98.9982 1152.9C98.9982 1153.61 98.7982 1154.15 98.3982 1154.52C97.9982 1154.89 97.4932 1155.1 96.8832 1155.14V1155.5C98.8132 1155.54 99.7782 1156.4 99.7782 1158.08C99.7782 1159.1 99.4232 1159.82 98.7132 1160.25C98.0032 1160.67 96.9682 1160.88 95.6082 1160.88H92.1282ZM93.3582 1154.85H94.9782C95.9382 1154.85 96.6432 1154.74 97.0932 1154.51C97.5432 1154.27 97.7682 1153.8 97.7682 1153.1C97.7682 1152.78 97.7232 1152.51 97.6332 1152.29C97.5432 1152.07 97.4282 1151.9 97.2882 1151.78C97.1582 1151.66 96.9582 1151.57 96.6882 1151.51C96.4282 1151.44 96.1782 1151.4 95.9382 1151.39C95.6982 1151.37 95.3782 1151.36 94.9782 1151.36H93.3582V1154.85ZM93.3582 1159.83H95.6532C96.6432 1159.83 97.3732 1159.7 97.8432 1159.44C98.3132 1159.17 98.5482 1158.65 98.5482 1157.87C98.5482 1157.14 98.3082 1156.63 97.8282 1156.34C97.3482 1156.05 96.6232 1155.9 95.6532 1155.9H93.3582V1159.83Z" fill="url(#paint0_linear_145_1777)" fill-opacity="0.14"/>
<path d="M1232.45 898.819C1233.19 898.819 1233.76 899.088 1234.15 899.626C1234.55 900.154 1234.75 900.852 1234.75 901.719V906.398H1233.52V902.003C1233.52 901.245 1233.41 900.702 1233.19 900.373C1232.98 900.034 1232.58 899.865 1232 899.865C1231.27 899.865 1230.69 900.164 1230.26 900.762C1229.85 901.35 1229.64 902.137 1229.64 903.124V906.398H1228.41V902.003C1228.41 901.245 1228.3 900.702 1228.08 900.373C1227.86 900.034 1227.46 899.865 1226.89 899.865C1226.16 899.865 1225.58 900.164 1225.15 900.762C1224.73 901.35 1224.52 902.137 1224.52 903.124V906.398H1223.3V898.968H1224.52V900.239L1224.33 901.076H1224.67C1225.01 899.571 1225.9 898.819 1227.33 898.819C1227.98 898.819 1228.49 899.023 1228.86 899.432C1229.24 899.83 1229.47 900.378 1229.56 901.076H1229.79C1230.13 899.571 1231.01 898.819 1232.45 898.819ZM1238.78 897.787C1238.47 897.787 1238.21 897.687 1238 897.488C1237.8 897.289 1237.7 897.04 1237.7 896.741C1237.7 896.452 1237.8 896.207 1238 896.008C1238.21 895.809 1238.47 895.709 1238.78 895.709C1239.08 895.709 1239.33 895.809 1239.54 896.008C1239.75 896.207 1239.86 896.452 1239.86 896.741C1239.86 897.04 1239.75 897.289 1239.54 897.488C1239.33 897.687 1239.08 897.787 1238.78 897.787ZM1236.3 906.398V905.351H1238.39V899.88L1236.85 900.015V898.968L1238.57 898.819C1239.22 898.759 1239.54 899.058 1239.54 899.716V905.351H1241.64V906.398H1236.3ZM1247.08 899.865C1246.29 899.865 1245.64 900.159 1245.14 900.747C1244.65 901.335 1244.41 902.122 1244.41 903.109V906.398H1243.18V898.968H1244.41V900.254L1244.21 901.106H1244.56C1244.72 900.408 1245.04 899.855 1245.51 899.446C1246 899.028 1246.64 898.819 1247.41 898.819C1248.28 898.819 1248.96 899.073 1249.45 899.581C1249.93 900.089 1250.18 900.847 1250.18 901.853V906.398H1248.97V902.018C1248.97 901.25 1248.81 900.702 1248.5 900.373C1248.21 900.034 1247.73 899.865 1247.08 899.865ZM1232.45 912.819C1233.19 912.819 1233.76 913.088 1234.15 913.626C1234.55 914.154 1234.75 914.852 1234.75 915.719V920.398H1233.52V916.003C1233.52 915.245 1233.41 914.702 1233.19 914.373C1232.98 914.034 1232.58 913.865 1232 913.865C1231.27 913.865 1230.69 914.164 1230.26 914.762C1229.85 915.35 1229.64 916.137 1229.64 917.124V920.398H1228.41V916.003C1228.41 915.245 1228.3 914.702 1228.08 914.373C1227.86 914.034 1227.46 913.865 1226.89 913.865C1226.16 913.865 1225.58 914.164 1225.15 914.762C1224.73 915.35 1224.52 916.137 1224.52 917.124V920.398H1223.3V912.968H1224.52V914.239L1224.33 915.076H1224.67C1225.01 913.571 1225.9 912.819 1227.33 912.819C1227.98 912.819 1228.49 913.023 1228.86 913.432C1229.24 913.83 1229.47 914.378 1229.56 915.076H1229.79C1230.13 913.571 1231.01 912.819 1232.45 912.819ZM1236.45 918.335C1236.45 917.059 1237.26 916.337 1238.88 916.167L1241.84 915.883C1241.77 914.528 1241.07 913.85 1239.75 913.85C1239.15 913.85 1238.65 914 1238.25 914.299C1237.87 914.598 1237.67 915.076 1237.67 915.734H1236.47C1236.47 914.926 1236.77 914.239 1237.36 913.671C1237.94 913.103 1238.74 912.819 1239.75 912.819C1240.78 912.819 1241.58 913.128 1242.17 913.745C1242.77 914.363 1243.07 915.176 1243.07 916.182V919.351H1244.16V920.398H1242.84C1242.26 920.398 1241.96 920.109 1241.96 919.531V919.127L1242.16 918.35H1241.8C1241.43 919.815 1240.47 920.547 1238.93 920.547C1238.52 920.547 1238.15 920.498 1237.84 920.398C1237.53 920.288 1237.29 920.159 1237.12 920.009C1236.95 919.85 1236.81 919.665 1236.7 919.456C1236.59 919.237 1236.52 919.043 1236.49 918.873C1236.46 918.694 1236.45 918.514 1236.45 918.335ZM1237.67 918.185C1237.67 918.604 1237.8 918.928 1238.04 919.157C1238.29 919.386 1238.64 919.501 1239.08 919.501C1239.9 919.501 1240.57 919.247 1241.08 918.739C1241.59 918.23 1241.84 917.582 1241.84 916.795L1239.09 917.079C1238.6 917.129 1238.24 917.239 1238.01 917.408C1237.79 917.568 1237.67 917.827 1237.67 918.185ZM1245.11 920.398L1247.91 916.855V916.496L1245.11 912.968H1246.56L1248.82 915.958L1251.08 912.968H1252.53L1249.73 916.496V916.855L1252.53 920.398H1251.08L1248.82 917.393L1246.56 920.398H1245.11Z" fill="white" fill-opacity="0.25"/>
<path d="M1177.11 905.885L1183.77 896.698V895.882L1177.11 886.722H1179.67L1185.54 894.958L1191.43 886.722H1193.96L1187.3 895.882V896.698L1193.96 905.885H1191.43L1185.54 897.622L1179.67 905.885H1177.11ZM1204.62 905.885V904.477L1209.11 898.864L1204.81 893.727V892.3H1213.81V893.822H1208.92C1208.64 893.822 1208.3 893.822 1207.89 893.822C1207.5 893.822 1207.2 893.816 1207 893.803L1210.9 898.426V898.94L1206.58 904.363C1207.06 904.363 1207.53 904.363 1207.97 904.363C1208.43 904.35 1208.91 904.344 1209.42 904.344H1214.04V905.885H1204.62Z" fill="white" fill-opacity="0.25"/>
<path d="M390.073 810.122V803.759H391.25V809.935C391.25 810.998 391.466 811.778 391.897 812.276C392.328 812.774 393.055 813.023 394.08 813.023C395.104 813.023 395.832 812.774 396.263 812.276C396.703 811.778 396.924 810.998 396.924 809.935V803.759H398.101V810.122C398.101 812.726 396.761 814.028 394.08 814.028C391.408 814.028 390.073 812.726 390.073 810.122ZM404.939 813.885L402.555 810.567L401.061 811.386V813.885H399.884V803.328H401.061V810.15L404.695 808.168L404.552 806.746H405.729L405.844 808.053C405.883 808.513 405.691 808.858 405.27 809.088L403.517 810.05L406.275 813.885H404.939ZM417.012 802.222L417.916 802.538L413.536 815.479L412.631 815.149L417.012 802.222ZM413.205 808.269C412.65 808.843 411.937 809.131 411.065 809.131C410.194 809.131 409.481 808.843 408.925 808.269C408.37 807.694 408.092 806.991 408.092 806.158C408.092 805.325 408.37 804.621 408.925 804.046C409.481 803.472 410.194 803.185 411.065 803.185C411.937 803.185 412.65 803.472 413.205 804.046C413.761 804.621 414.039 805.325 414.039 806.158C414.039 806.991 413.761 807.694 413.205 808.269ZM411.065 808.168C411.65 808.168 412.133 807.972 412.516 807.58C412.899 807.187 413.091 806.713 413.091 806.158C413.091 805.602 412.899 805.128 412.516 804.736C412.133 804.343 411.65 804.147 411.065 804.147C410.491 804.147 410.012 804.343 409.629 804.736C409.246 805.128 409.055 805.602 409.055 806.158C409.055 806.713 409.246 807.187 409.629 807.58C410.012 807.972 410.491 808.168 411.065 808.168ZM421.694 813.31C421.139 813.885 420.425 814.172 419.554 814.172C418.682 814.172 417.969 813.885 417.414 813.31C416.858 812.736 416.581 812.032 416.581 811.199C416.581 810.366 416.858 809.662 417.414 809.088C417.969 808.513 418.682 808.226 419.554 808.226C420.425 808.226 421.139 808.513 421.694 809.088C422.249 809.662 422.527 810.366 422.527 811.199C422.527 812.032 422.249 812.736 421.694 813.31ZM418.103 812.621C418.486 813.013 418.97 813.21 419.554 813.21C420.138 813.21 420.617 813.013 420.99 812.621C421.373 812.228 421.565 811.754 421.565 811.199C421.565 810.644 421.373 810.17 420.99 809.777C420.617 809.384 420.138 809.188 419.554 809.188C418.97 809.188 418.486 809.384 418.103 809.777C417.73 810.17 417.543 810.644 417.543 811.199C417.543 811.754 417.73 812.228 418.103 812.621ZM433.556 806.603C434.274 806.603 434.82 806.861 435.193 807.378C435.576 807.886 435.768 808.556 435.768 809.389V813.885H434.59V809.662C434.59 808.934 434.485 808.413 434.274 808.097C434.064 807.771 433.681 807.608 433.125 807.608C432.426 807.608 431.871 807.895 431.459 808.47C431.057 809.035 430.856 809.791 430.856 810.739V813.885H429.678V809.662C429.678 808.934 429.573 808.413 429.362 808.097C429.151 807.771 428.768 807.608 428.213 807.608C427.514 807.608 426.959 807.895 426.547 808.47C426.145 809.035 425.944 809.791 425.944 810.739V813.885H424.766V806.746H425.944V807.967L425.757 808.772H426.087C426.413 807.326 427.265 806.603 428.644 806.603C429.266 806.603 429.755 806.799 430.109 807.192C430.473 807.575 430.698 808.101 430.784 808.772H430.999C431.325 807.326 432.177 806.603 433.556 806.603ZM439.641 805.612C439.344 805.612 439.095 805.516 438.894 805.325C438.702 805.133 438.607 804.894 438.607 804.606C438.607 804.329 438.702 804.094 438.894 803.903C439.095 803.711 439.344 803.615 439.641 803.615C439.928 803.615 440.172 803.711 440.373 803.903C440.574 804.094 440.675 804.329 440.675 804.606C440.675 804.894 440.574 805.133 440.373 805.325C440.172 805.516 439.928 805.612 439.641 805.612ZM437.257 813.885V812.879H439.267V807.623L437.788 807.752V806.746L439.44 806.603C440.062 806.545 440.373 806.833 440.373 807.465V812.879H442.384V813.885H437.257ZM447.618 807.608C446.852 807.608 446.23 807.891 445.751 808.456C445.282 809.021 445.047 809.777 445.047 810.725V813.885H443.87V806.746H445.047V807.982L444.861 808.8H445.191C445.344 808.13 445.651 807.599 446.11 807.206C446.579 806.804 447.187 806.603 447.934 806.603C448.767 806.603 449.418 806.847 449.888 807.335C450.357 807.824 450.591 808.551 450.591 809.518V813.885H449.428V809.676C449.428 808.939 449.28 808.413 448.983 808.097C448.696 807.771 448.241 807.608 447.618 807.608ZM457.478 808.326H464.329V809.289H457.478V808.326ZM457.478 811.256H464.329V812.204H457.478V811.256ZM471.002 811.098C471.002 810.39 471.204 809.83 471.606 809.418C472.008 809.006 472.611 808.695 473.415 808.484V808.14C472.812 807.967 472.353 807.718 472.037 807.393C471.73 807.058 471.577 806.598 471.577 806.014C471.577 805.219 471.903 804.621 472.554 804.219C473.205 803.816 474.057 803.615 475.11 803.615C476.154 803.615 477.001 803.816 477.652 804.219C478.304 804.621 478.629 805.219 478.629 806.014C478.629 806.598 478.471 807.058 478.155 807.393C477.849 807.718 477.394 807.967 476.791 808.14V808.484C477.585 808.695 478.184 809.011 478.586 809.432C478.998 809.844 479.204 810.399 479.204 811.098C479.204 811.979 478.84 812.688 478.112 813.224C477.384 813.76 476.384 814.028 475.11 814.028C473.827 814.028 472.822 813.76 472.094 813.224C471.366 812.688 471.002 811.979 471.002 811.098ZM472.755 806.215C472.755 806.799 472.951 807.216 473.344 807.465C473.736 807.704 474.325 807.824 475.11 807.824C475.886 807.824 476.47 807.704 476.862 807.465C477.255 807.216 477.451 806.799 477.451 806.215C477.451 805.641 477.25 805.234 476.848 804.994C476.456 804.745 475.876 804.621 475.11 804.621C474.335 804.621 473.746 804.745 473.344 804.994C472.951 805.234 472.755 805.641 472.755 806.215ZM472.913 809.389C472.424 809.763 472.18 810.275 472.18 810.926C472.18 811.577 472.42 812.089 472.898 812.463C473.387 812.836 474.124 813.023 475.11 813.023C476.087 813.023 476.815 812.836 477.293 812.463C477.782 812.089 478.026 811.577 478.026 810.926C478.026 810.275 477.782 809.763 477.293 809.389C476.815 809.016 476.087 808.829 475.11 808.829C474.134 808.829 473.401 809.016 472.913 809.389ZM481.658 811.544L482.707 811.817L481.586 815.982L480.538 815.694L481.658 811.544ZM485.724 813.885C485.724 811.711 486.16 809.897 487.031 808.441C487.902 806.986 489.238 805.808 491.038 804.908V804.578L490.234 804.764H483.972V803.759H491.383V805.741C489.86 806.507 488.735 807.551 488.008 808.872C487.28 810.184 486.916 811.855 486.916 813.885H485.724ZM496.692 803.615C498.061 803.615 499.119 804.099 499.866 805.066C500.613 806.024 500.986 807.273 500.986 808.815C500.986 810.366 500.613 811.625 499.866 812.592C499.119 813.55 498.061 814.028 496.692 814.028C495.313 814.028 494.245 813.55 493.489 812.592C492.742 811.625 492.368 810.366 492.368 808.815C492.368 807.273 492.742 806.024 493.489 805.066C494.245 804.099 495.313 803.615 496.692 803.615ZM496.692 804.621C495.667 804.621 494.882 805.004 494.336 805.77C493.8 806.536 493.532 807.551 493.532 808.815C493.532 809.763 493.685 810.581 493.991 811.271L498.76 805.454C498.224 804.898 497.534 804.621 496.692 804.621ZM496.692 813.023C497.706 813.023 498.482 812.64 499.018 811.874C499.554 811.108 499.823 810.088 499.823 808.815C499.823 807.867 499.669 807.048 499.363 806.359L494.595 812.176C495.131 812.741 495.83 813.023 496.692 813.023ZM511.983 802.222L512.887 802.538L508.507 815.479L507.602 815.149L511.983 802.222ZM508.176 808.269C507.621 808.843 506.908 809.131 506.036 809.131C505.165 809.131 504.452 808.843 503.896 808.269C503.341 807.694 503.063 806.991 503.063 806.158C503.063 805.325 503.341 804.621 503.896 804.046C504.452 803.472 505.165 803.185 506.036 803.185C506.908 803.185 507.621 803.472 508.176 804.046C508.732 804.621 509.009 805.325 509.009 806.158C509.009 806.991 508.732 807.694 508.176 808.269ZM506.036 808.168C506.62 808.168 507.104 807.972 507.487 807.58C507.87 807.187 508.062 806.713 508.062 806.158C508.062 805.602 507.87 805.128 507.487 804.736C507.104 804.343 506.62 804.147 506.036 804.147C505.462 804.147 504.983 804.343 504.6 804.736C504.217 805.128 504.026 805.602 504.026 806.158C504.026 806.713 504.217 807.187 504.6 807.58C504.983 807.972 505.462 808.168 506.036 808.168ZM516.665 813.31C516.109 813.885 515.396 814.172 514.525 814.172C513.653 814.172 512.94 813.885 512.385 813.31C511.829 812.736 511.552 812.032 511.552 811.199C511.552 810.366 511.829 809.662 512.385 809.088C512.94 808.513 513.653 808.226 514.525 808.226C515.396 808.226 516.109 808.513 516.665 809.088C517.22 809.662 517.498 810.366 517.498 811.199C517.498 812.032 517.22 812.736 516.665 813.31ZM513.074 812.621C513.457 813.013 513.941 813.21 514.525 813.21C515.109 813.21 515.588 813.013 515.961 812.621C516.344 812.228 516.536 811.754 516.536 811.199C516.536 810.644 516.344 810.17 515.961 809.777C515.588 809.384 515.109 809.188 514.525 809.188C513.941 809.188 513.457 809.384 513.074 809.777C512.701 810.17 512.514 810.644 512.514 811.199C512.514 811.754 512.701 812.228 513.074 812.621Z" fill="white" fill-opacity="0.1"/>
<rect x="1348" y="1148.83" width="61" height="61" fill="white" fill-opacity="0.02"/>
<rect x="144" y="876.055" width="61" height="61" fill="white" fill-opacity="0.02"/>
<rect y="327.5" width="61" height="61" fill="white" fill-opacity="0.02"/>
<rect x="519" width="61" height="61" fill="white" fill-opacity="0.02"/>
<rect x="762.5" y="359.385" width="61" height="61" fill="white" fill-opacity="0.02"/>
<rect x="61" y="433.885" width="35" height="35" fill="white" fill-opacity="0.04"/>
<rect x="160" y="894.13" width="61" height="61" fill="white" fill-opacity="0.02"/>
<rect x="1409" y="1209.83" width="31" height="61" fill="white" fill-opacity="0.02"/>
<rect x="1409" y="1148.83" width="31" height="61" fill="white" fill-opacity="0.02"/>
<g filter="url(#filter0_f_145_1777)">
<circle cx="472.526" cy="777.959" r="59.1045" fill="#0F1D40"/>
</g>
<g filter="url(#filter1_f_145_1777)">
<circle cx="1248.03" cy="872.989" r="59.1045" fill="#0F1D40"/>
</g>
<defs>
<filter id="filter0_f_145_1777" x="353.422" y="658.855" width="238.209" height="238.209" filterUnits="userSpaceOnUse" color-interpolation-filters="sRGB">
<feFlood flood-opacity="0" result="BackgroundImageFix"/>
<feBlend mode="normal" in="SourceGraphic" in2="BackgroundImageFix" result="shape"/>
<feGaussianBlur stdDeviation="30" result="effect1_foregroundBlur_145_1777"/>
</filter>
<filter id="filter1_f_145_1777" x="1128.92" y="753.885" width="238.209" height="238.209" filterUnits="userSpaceOnUse" color-interpolation-filters="sRGB">
<feFlood flood-opacity="0" result="BackgroundImageFix"/>
<feBlend mode="normal" in="SourceGraphic" in2="BackgroundImageFix" result="shape"/>
<feGaussianBlur stdDeviation="30" result="effect1_foregroundBlur_145_1777"/>
</filter>
<linearGradient id="paint0_linear_145_1777" x1="77" y1="1149.88" x2="77" y2="1163.88" gradientUnits="userSpaceOnUse">
<stop stop-color="white"/>
<stop offset="0.975898" stop-color="white" stop-opacity="0"/>
</linearGradient>
</defs>
</svg>
