<svg width="87" height="22" viewBox="0 0 87 22" fill="none" xmlns="http://www.w3.org/2000/svg">
<g clip-path="url(#clip0_5_934)">
<path d="M0.425588 17.4287C0.622013 17.3959 0.842991 17.3755 1.06397 17.3755C1.42408 17.3755 1.71463 17.4573 1.91105 17.6251C2.0952 17.7806 2.21388 18.0098 2.21797 18.3494C2.21797 18.7955 2.02973 19.1842 1.74327 19.4175C1.47728 19.6303 1.13354 19.7244 0.63429 19.7244C0.356021 19.7244 0.114581 19.7039 0 19.6835L0.425588 17.4287ZM0.564722 19.3152C0.622013 19.3234 0.695673 19.3275 0.781609 19.3275C1.0476 19.3275 1.28495 19.2293 1.43636 19.0574C1.59595 18.8773 1.6778 18.6359 1.6778 18.3576C1.6778 17.9934 1.47319 17.7765 1.06397 17.7765C0.978034 17.7765 0.904374 17.7765 0.855268 17.7888L0.564722 19.3111V19.3152Z" fill="white"/>
<path d="M5.46622 17.3916L5.02836 19.7119H4.5332L4.96698 17.3916H5.46213H5.46622Z" fill="white"/>
<path d="M9.61576 19.6056C9.43571 19.6629 9.15744 19.7366 8.86689 19.7366C8.5477 19.7366 8.2858 19.6547 8.09347 19.4829C7.90932 19.3192 7.79883 19.0614 7.79883 18.7667C7.79883 18.3329 7.97479 17.9606 8.27352 17.7068C8.53542 17.49 8.89144 17.3672 9.29248 17.3672C9.5953 17.3672 9.82037 17.4245 9.90631 17.4695L9.75899 17.891C9.65259 17.8419 9.47253 17.7928 9.26793 17.7928C9.03876 17.7928 8.83006 17.8583 8.67865 17.981C8.47813 18.1406 8.34718 18.4148 8.34718 18.7299C8.34718 19.1186 8.57635 19.3151 8.94464 19.3151C9.05922 19.3151 9.14107 19.2987 9.19427 19.2741L9.28839 18.7831H8.93237L9.00603 18.3861H9.84902L9.61985 19.6015L9.61576 19.6056Z" fill="white"/>
<path d="M13.1477 17.3916L12.7139 19.7119H12.2188L12.6566 17.3916H13.1518H13.1477Z" fill="white"/>
<path d="M16.1547 17.8254H15.5449L15.6309 17.3916H17.3537L17.2718 17.8254H16.6539L16.302 19.7119H15.8068L16.1588 17.8254H16.1547Z" fill="white"/>
<path d="M19.8353 19.1103L19.5611 19.7119H19.0332L20.1586 17.3916H20.7928L21.067 19.7119H20.5473L20.4982 19.1103H19.8312H19.8353ZM20.4818 18.7338L20.4368 18.2346C20.4245 18.1077 20.4123 17.9236 20.4 17.7804H20.3918C20.3345 17.9195 20.269 18.0996 20.2077 18.2346L19.9785 18.7338H20.4818Z" fill="white"/>
<path d="M23.9687 17.3916H24.4639L24.112 19.2781H25.0041L24.9222 19.7119H23.5391L23.9728 17.3916H23.9687Z" fill="white"/>
<path d="M30.9036 19.1103L30.6295 19.7119H30.1016L31.2269 17.3916H31.8612L32.1354 19.7119H31.6157L31.5666 19.1103H30.8995H30.9036ZM31.5502 18.7338L31.5052 18.2346C31.4929 18.1077 31.4806 17.9236 31.4684 17.7804H31.4602C31.4029 17.9195 31.3374 18.0996 31.276 18.2346L31.0469 18.7338H31.5502Z" fill="white"/>
<path d="M36.4204 19.6056C36.2404 19.6629 35.9621 19.7366 35.6716 19.7366C35.3524 19.7366 35.0905 19.6547 34.8982 19.4829C34.7099 19.3192 34.6035 19.0614 34.6035 18.7667C34.6035 18.3329 34.7795 17.9606 35.0741 17.7068C35.336 17.49 35.692 17.3672 36.0931 17.3672C36.3959 17.3672 36.621 17.4245 36.7069 17.4695L36.5596 17.891C36.4532 17.8419 36.2731 17.7928 36.0685 17.7928C35.8394 17.7928 35.6307 17.8583 35.4792 17.981C35.2787 18.1406 35.1478 18.4148 35.1478 18.7299C35.1478 19.1186 35.3769 19.3151 35.7452 19.3151C35.8598 19.3151 35.9417 19.2987 35.9949 19.2741L36.0849 18.7831H35.7289L35.8025 18.3861H36.6455L36.4164 19.6015L36.4204 19.6056Z" fill="white"/>
<path d="M40.5333 18.7297H39.7066L39.6002 19.2904H40.5251L40.4473 19.7119H39.0273L39.4611 17.3916H40.832L40.7502 17.8131H39.8785L39.7844 18.3083H40.6069L40.5292 18.7257L40.5333 18.7297Z" fill="white"/>
<path d="M43.0176 19.7121L43.4554 17.3918H44.0365L44.3434 18.2757C44.4376 18.5703 44.4989 18.8118 44.5562 19.0655H44.5685C44.5767 18.8281 44.6094 18.5744 44.6708 18.2307L44.8263 17.3877H45.2847L44.8509 19.708H44.3394L44.0161 18.7831C43.9138 18.4721 43.8483 18.2593 43.7869 17.977H43.7787C43.7501 18.202 43.6969 18.5335 43.6273 18.8977L43.48 19.7121H43.0176Z" fill="white"/>
<path d="M49.258 19.6466C49.1352 19.6998 48.9265 19.7448 48.6482 19.7448C48.0385 19.7448 47.6252 19.3724 47.6211 18.7627C47.6211 18.243 47.8543 17.8379 48.2022 17.6046C48.4395 17.4368 48.726 17.355 49.0534 17.355C49.303 17.355 49.4912 17.4123 49.5567 17.4532L49.4257 17.8542C49.3562 17.8215 49.2048 17.7765 49.0043 17.7765C48.8037 17.7765 48.6155 17.8379 48.4764 17.9565C48.2799 18.1161 48.1572 18.378 48.1572 18.7013C48.1572 19.0696 48.3659 19.3151 48.7751 19.3151C48.9347 19.3151 49.0984 19.2865 49.213 19.2415L49.2539 19.6384L49.258 19.6466Z" fill="white"/>
<path d="M52.2 19.7122L52.38 18.7669L51.9258 17.396H52.4537L52.601 17.9853C52.6419 18.1776 52.6665 18.2881 52.691 18.4068H52.6992C52.7688 18.284 52.8383 18.1531 52.9366 17.9853L53.2844 17.4001H53.8737L52.8793 18.7628L52.6992 19.7204H52.2041L52.2 19.7122Z" fill="white"/>
<path d="M80.3625 11.2456H80.9845C81.6966 11.2456 82.0935 10.9428 82.1835 10.3371L82.2327 9.95248C82.3186 9.33865 82.0076 9.03174 81.2996 9.03174H79.7323L79.4336 11.1638C79.5932 11.1965 79.7446 11.217 79.8878 11.2292C80.0311 11.2415 80.1906 11.2456 80.3666 11.2456H80.3625Z" fill="white"/>
<path d="M86.9992 10.7625C86.9992 4.8206 82.1827 0 76.2367 0C75.0827 0 73.9778 0.184149 72.9384 0.519708L71.7189 8.69591C71.7066 8.76957 71.6862 8.83914 71.6575 8.90461L71.1869 12.2889C71.1624 12.473 71.1419 12.6571 71.1215 12.8413C71.101 13.0254 71.0887 13.2014 71.0805 13.3733C71.0724 13.5452 71.0805 13.7048 71.0928 13.848C71.1092 13.9912 71.1378 14.114 71.1788 14.2204C71.2892 14.3472 71.4488 14.4454 71.6453 14.5068C71.8458 14.5723 72.0586 14.605 72.2918 14.605C72.6028 14.605 72.9016 14.5477 73.1921 14.4291C73.4827 14.3104 73.675 14.1426 73.7773 13.9216C73.8346 13.803 73.8796 13.6393 73.9164 13.4347C73.9533 13.2301 73.9983 12.9436 74.0556 12.5794L74.6776 8.07389C74.7103 7.87338 74.743 7.72197 74.784 7.61148C74.8249 7.50508 74.8822 7.42733 74.9599 7.37822C75.0336 7.32912 75.1318 7.30456 75.2546 7.29229C75.3732 7.2841 75.5287 7.28001 75.7211 7.28001C75.9462 7.28001 76.1221 7.28001 76.249 7.2841C76.3758 7.2841 76.47 7.31275 76.5232 7.36185C76.5804 7.41096 76.605 7.48871 76.605 7.59511C76.605 7.70151 76.5886 7.8611 76.5559 8.0698L75.9339 12.5753C75.9011 12.7922 75.8684 13.0173 75.8316 13.2546C75.7947 13.492 75.7456 13.7048 75.6802 13.8971C75.5615 14.2654 75.3896 14.5968 75.1645 14.9038C74.9395 15.2066 74.6735 15.4644 74.3625 15.6813C74.0515 15.8982 73.6995 16.0619 73.3149 16.1764C72.9261 16.291 72.5128 16.3483 72.0749 16.3401C71.146 16.3319 70.434 16.1191 69.9306 15.7058C69.4273 15.2884 69.1654 14.6869 69.1531 13.8971C69.1531 13.7048 69.1654 13.496 69.1818 13.2751C69.2022 13.05 69.2309 12.8249 69.2718 12.5917L69.8938 8.07389C69.9143 7.94294 69.9388 7.84064 69.9634 7.75061L70.9087 1.42817C67.6717 3.28194 65.4824 6.76439 65.4824 10.7625C65.4824 16.6348 70.1884 21.3981 76.0321 21.5127L77.1738 13.8684L77.8859 8.7532C77.7263 8.68772 77.6035 8.60997 77.5135 8.51994C77.4275 8.42992 77.3743 8.3317 77.358 8.23758L77.4316 7.6524C77.448 7.54191 77.4971 7.45188 77.583 7.38231C77.669 7.31275 77.7631 7.28001 77.8777 7.28001H81.6425C82.641 7.28001 83.3489 7.4928 83.7622 7.92248C84.1756 8.35216 84.3229 8.99873 84.1919 9.87037L84.106 10.5047C83.9873 11.3436 83.6599 11.9697 83.1239 12.3871C82.5878 12.8045 81.8266 13.0091 80.8363 13.0091H80.5867C80.2184 12.9927 79.9238 12.9845 79.6987 12.9763C79.4736 12.9763 79.3222 12.9641 79.2445 12.9477H79.2199V12.9354L77.9595 21.3735C83.087 20.551 87.0073 16.1191 87.0073 10.7625H86.9992Z" fill="white"/>
<path d="M76.5968 7.59444C76.5968 7.48805 76.5681 7.4062 76.5149 7.36119C76.4576 7.31208 76.3676 7.28753 76.2408 7.28344C76.1139 7.28344 75.9379 7.27934 75.7129 7.27934C75.5205 7.27934 75.365 7.27934 75.2464 7.29162C75.1277 7.2998 75.0295 7.32845 74.9517 7.37756C74.874 7.42666 74.8167 7.50441 74.7758 7.61081C74.7348 7.7213 74.698 7.87271 74.6694 8.07323L74.0473 12.5787C73.9901 12.947 73.945 13.2335 73.9082 13.434C73.8714 13.6386 73.8264 13.7982 73.7691 13.921C73.6668 14.1419 73.4703 14.3138 73.1839 14.4284C72.8974 14.543 72.5987 14.6044 72.2836 14.6044C72.0504 14.6044 71.8376 14.5716 71.637 14.5062C71.4365 14.4407 71.281 14.3466 71.1705 14.2197C71.1296 14.1174 71.101 13.9905 71.0846 13.8473C71.0682 13.7041 71.0641 13.5445 71.0723 13.3726C71.0805 13.2007 71.0928 13.0248 71.1132 12.8406C71.1337 12.6565 71.1542 12.4723 71.1787 12.2882L71.6493 8.90394C71.678 8.83847 71.7025 8.7689 71.7107 8.69524L72.9302 0.519043C72.214 0.748206 71.5347 1.05512 70.8923 1.42342L69.947 7.74585C69.9224 7.83588 69.8979 7.93819 69.8774 8.06914L69.2554 12.5869C69.2145 12.8202 69.1858 13.0452 69.1654 13.2703C69.1449 13.4913 69.1367 13.7 69.1367 13.8923C69.1531 14.6821 69.4109 15.2878 69.9142 15.7011C70.4176 16.1144 71.1296 16.3272 72.0585 16.3354C72.4964 16.3435 72.9097 16.2903 73.2985 16.1717C73.6872 16.0571 74.0351 15.8893 74.3461 15.6765C74.6571 15.4596 74.9272 15.2018 75.1481 14.899C75.3691 14.5962 75.5451 14.2606 75.6638 13.8923C75.7292 13.7 75.7783 13.4872 75.8152 13.2499C75.852 13.0125 75.8847 12.7874 75.9175 12.5705L76.5395 8.06504C76.5722 7.85634 76.5886 7.70084 76.5886 7.59035L76.5968 7.59444Z" fill="#0F1D40"/>
<path d="M83.7497 7.91738C83.3323 7.49179 82.6284 7.2749 81.6299 7.2749H77.8651C77.7546 7.2749 77.6564 7.30764 77.5705 7.37721C77.4845 7.44677 77.4354 7.5368 77.4191 7.64729L77.3454 8.23248C77.3618 8.3266 77.415 8.42072 77.5009 8.51484C77.5909 8.60486 77.7137 8.68262 77.8733 8.74809L77.1612 13.8633L76.0195 21.5075C76.0891 21.5075 76.1587 21.5198 76.2323 21.5198C76.8175 21.5198 77.3863 21.4625 77.9429 21.3725L79.2033 12.9344V12.9467H79.2278C79.3056 12.963 79.4611 12.9712 79.682 12.9753C79.9071 12.9794 80.2017 12.9917 80.57 13.0081H80.8197C81.81 13.0081 82.5711 12.7994 83.1072 12.386C83.6433 11.9727 83.9707 11.3425 84.0893 10.5036L84.1753 9.86935C84.3021 8.99771 84.1589 8.35115 83.7456 7.92147L83.7497 7.91738ZM82.2274 9.9471L82.1783 10.3318C82.0923 10.9374 81.6913 11.2402 80.9793 11.2402H80.3573C80.1813 11.2402 80.0217 11.2361 79.8785 11.2239C79.7352 11.2116 79.5838 11.1911 79.4242 11.1584L79.723 9.02636H81.2903C82.0023 9.02636 82.3133 9.33327 82.2233 9.9471H82.2274Z" fill="#0F1D40"/>
<path d="M8.83571 14.331L9.40861 10.4352C9.56412 9.4122 9.77282 8.10679 10.0388 6.74818H9.99789C9.47818 7.96765 8.8889 9.27306 8.37329 10.3084L6.43768 14.1755H4.86628L4.53072 10.3493C4.44478 9.30989 4.37522 8.00857 4.32202 6.74818H4.29337C4.02738 7.9963 3.74502 9.4122 3.50767 10.4352L2.56647 14.331H0.716797L3.08618 4.88623H5.79111L6.08575 8.47508C6.14304 9.359 6.24126 10.4393 6.25353 11.4869H6.31082C6.67503 10.4352 7.17837 9.32626 7.58759 8.47508L9.33904 4.88623H12.0726L10.7959 14.3351H8.83161L8.83571 14.331Z" fill="white"/>
<path d="M16.8524 14.331C16.8647 13.9218 16.9097 13.4635 16.9506 12.9724H16.9097C16.2795 14.106 15.4079 14.4865 14.6099 14.4865C13.3781 14.4865 12.5352 13.5331 12.5352 12.1049C12.5352 9.79279 14.0615 7.3252 17.4417 7.3252C18.256 7.3252 19.1359 7.4807 19.7129 7.66075L18.9845 11.2496C18.8167 12.1335 18.6898 13.4799 18.7185 14.3351H16.8524V14.331ZM17.4417 8.90478C17.2862 8.87614 17.0898 8.84749 16.8933 8.84749C15.5879 8.84749 14.6345 10.4475 14.6345 11.7202C14.6345 12.3913 14.9004 12.8537 15.4611 12.8537C16.0626 12.8537 16.8074 12.1663 17.1143 10.4844L17.4376 8.90069L17.4417 8.90478Z" fill="white"/>
<path d="M20.1994 14.3307L20.9687 10.2508C21.1652 9.21139 21.247 8.06558 21.3207 7.4763H23.0721C23.0312 7.93872 22.9862 8.40114 22.9453 8.87583H22.9862C23.4609 7.96328 24.2343 7.3208 25.1714 7.3208C25.2983 7.3208 25.4251 7.3208 25.5479 7.33308L25.155 9.29733C25.0568 9.28505 24.9463 9.28505 24.8318 9.28505C23.5427 9.28505 22.9412 10.435 22.6875 11.7813L22.2128 14.3348H20.1953L20.1994 14.3307Z" fill="white"/>
<path d="M25.3887 14.3306L27.267 4.37842H29.2722L28.1509 10.3366H28.1795C28.3882 10.0707 28.601 9.80466 28.7975 9.55095L30.5489 7.47621H33.0288L30.1152 10.2957L32.0221 14.3347H29.7796L28.5724 11.4047L27.8153 12.1208L27.3938 14.3347H25.3887V14.3306Z" fill="white"/>
<path d="M38.2137 13.9423C37.4157 14.3474 36.4213 14.4743 35.6643 14.4743C33.7 14.4743 32.6934 13.3653 32.6934 11.5852C32.6934 9.49815 34.2075 7.3252 36.6873 7.3252C38.0746 7.3252 39.069 8.09453 39.069 9.37129C39.069 11.1227 37.3748 11.7529 34.6249 11.6834C34.6249 11.8798 34.6944 12.1867 34.8336 12.3831C35.0996 12.7351 35.562 12.9151 36.1513 12.9151C36.896 12.9151 37.5262 12.7473 38.0705 12.4814L38.2096 13.9382L38.2137 13.9423ZM36.4336 8.79838C35.4965 8.79838 34.9604 9.56772 34.8213 10.2143C36.3927 10.2266 37.1743 10.0056 37.1743 9.38766C37.1743 9.03573 36.896 8.79838 36.4295 8.79838H36.4336Z" fill="white"/>
<path d="M43.3875 5.55713L43.0233 7.47637H44.4801L44.1855 9.00275H42.7287L42.2662 11.3312C42.2089 11.6095 42.1557 11.9614 42.1557 12.1988C42.1557 12.5343 42.2949 12.7758 42.7327 12.7758C42.9128 12.7758 43.1092 12.7758 43.2934 12.7471L43.056 14.3308C42.8023 14.429 42.299 14.4863 41.8652 14.4863C40.658 14.4863 40.0851 13.8684 40.0851 13.0131C40.0851 12.6366 40.126 12.256 40.2242 11.7363L40.7562 9.00275H39.8887L40.171 7.47637H41.0549L41.3373 6.03182L43.3957 5.55713H43.3875Z" fill="white"/>
<path d="M44.3809 14.3305L45.6863 7.47607H47.7037L46.3983 14.3305H44.3809Z" fill="white"/>
<path d="M48.0957 14.3309L48.9632 9.70264C49.131 8.8351 49.2456 8.07804 49.3275 7.4724H51.1198L50.9807 8.60594H51.0093C51.6559 7.70975 52.5071 7.31689 53.4196 7.31689C54.5409 7.31689 55.1711 8.00438 55.1711 9.18293C55.1711 9.48985 55.1138 10.0096 55.0606 10.3451L54.3036 14.3268H52.2861L53.0022 10.5293C53.0432 10.2919 53.0718 10.0096 53.0718 9.75993C53.0718 9.28524 52.904 8.94559 52.4007 8.94559C51.7418 8.94559 50.9725 9.77221 50.6902 11.2863L50.1132 14.3268H48.0957V14.3309Z" fill="white"/>
<path d="M56.4356 15.2842C56.8121 15.5093 57.6551 15.6607 58.228 15.6607C59.2388 15.6607 59.9958 15.2146 60.2741 13.8397L60.3846 13.2627H60.356C59.824 13.9502 59.206 14.2734 58.3917 14.2734C57.0331 14.2734 56.2065 13.1645 56.1901 11.8345C56.1901 9.56332 57.8024 7.3208 60.7897 7.3208C61.7555 7.3208 62.6107 7.48858 63.3269 7.79549L62.2875 13.4427C62.0501 14.7031 61.6695 15.8285 60.8429 16.4832C60.0981 17.0725 59.1037 17.2526 58.1912 17.2526C57.2786 17.2526 56.4234 17.0848 55.9609 16.8188L56.4234 15.276L56.4356 15.2842ZM61.1457 8.99041C60.9902 8.92085 60.6956 8.86356 60.4173 8.86356C59.1979 8.86356 58.3303 10.2222 58.3303 11.5276C58.3303 12.2151 58.6372 12.7184 59.2552 12.7184C59.914 12.7184 60.5851 11.99 60.7979 10.8278L61.1498 8.99041H61.1457Z" fill="white"/>
<path d="M47.5266 5.69202L47.015 4.63623L46.3726 5.61426L45.7383 6.57184H47.9481L47.5266 5.69202Z" fill="white"/>
</g>
<defs>
<clipPath id="clip0_5_934">
<rect width="87" height="21.5208" fill="white"/>
</clipPath>
</defs>
</svg>
