<svg width="12" height="12" viewBox="0 0 12 12" fill="none" xmlns="http://www.w3.org/2000/svg">
<g opacity="0.59" clip-path="url(#clip0_158_2300)">
<path d="M10.1302 11.9146H1.87075C1.39821 11.9136 0.945313 11.7255 0.611178 11.3913C0.277043 11.0572 0.0888871 10.6043 0.0878906 10.1318V2.9352C0.088798 2.46234 0.277161 2.00913 0.611685 1.67493C0.94621 1.34072 1.3996 1.1528 1.87246 1.15234H10.1319C10.6048 1.15325 11.058 1.34161 11.3922 1.67614C11.7264 2.01066 11.9143 2.46405 11.9147 2.93692V10.1301C11.9142 10.6032 11.726 11.0568 11.3915 11.3913C11.0569 11.7259 10.6033 11.9141 10.1302 11.9146ZM1.87075 2.00777C1.62486 2.00804 1.38913 2.10584 1.21526 2.27971C1.04139 2.45358 0.943591 2.68932 0.943319 2.9352V10.1301C0.944135 10.3756 1.04216 10.6109 1.21596 10.7843C1.38976 10.9578 1.62519 11.0554 1.87075 11.0558H10.1302C10.3755 11.055 10.6105 10.9573 10.784 10.7838C10.9574 10.6104 11.0552 10.3753 11.0559 10.1301V2.9352C11.0553 2.68988 10.9575 2.45479 10.7841 2.28132C10.6106 2.10785 10.3755 2.01012 10.1302 2.00949L1.87075 2.00777Z" fill="black"/>
<path d="M11.4856 5.94223H0.528181C0.414517 5.94223 0.305508 5.89707 0.225135 5.8167C0.144762 5.73633 0.0996094 5.62732 0.0996094 5.51365C0.0996094 5.39999 0.144762 5.29098 0.225135 5.21061C0.305508 5.13024 0.414517 5.08508 0.528181 5.08508H11.4856C11.5992 5.08508 11.7082 5.13024 11.7886 5.21061C11.869 5.29098 11.9141 5.39999 11.9141 5.51365C11.9141 5.62732 11.869 5.73633 11.7886 5.8167C11.7082 5.89707 11.5992 5.94223 11.4856 5.94223Z" fill="black"/>
<path d="M3.24302 3.13896C3.18673 3.139 3.13098 3.12795 3.07896 3.10643C3.02695 3.08491 2.97968 3.05334 2.93988 3.01353C2.90007 2.97373 2.86851 2.92646 2.84698 2.87445C2.82546 2.82243 2.81441 2.76668 2.81445 2.71039V0.514387C2.81445 0.400723 2.85961 0.291714 2.93998 0.211341C3.02035 0.130968 3.12936 0.0858154 3.24302 0.0858154C3.35669 0.0858154 3.4657 0.130968 3.54607 0.211341C3.62644 0.291714 3.6716 0.400723 3.6716 0.514387V2.71039C3.6716 2.82405 3.62644 2.93306 3.54607 3.01343C3.4657 3.09381 3.35669 3.13896 3.24302 3.13896Z" fill="black"/>
<path d="M8.7567 3.13908C8.7004 3.13913 8.64465 3.12807 8.59264 3.10655C8.54062 3.08503 8.49336 3.05346 8.45355 3.01366C8.41374 2.97385 8.38218 2.92659 8.36066 2.87457C8.33913 2.82255 8.32808 2.7668 8.32813 2.71051V0.514509C8.32813 0.400845 8.37328 0.291836 8.45365 0.211463C8.53402 0.13109 8.64303 0.0859375 8.7567 0.0859375C8.87036 0.0859375 8.97937 0.13109 9.05974 0.211463C9.14012 0.291836 9.18527 0.400845 9.18527 0.514509V2.71051C9.18527 2.82417 9.14012 2.93318 9.05974 3.01355C8.97937 3.09393 8.87036 3.13908 8.7567 3.13908Z" fill="black"/>
</g>
<defs>
<clipPath id="clip0_158_2300">
<rect width="12" height="12" fill="white"/>
</clipPath>
</defs>
</svg>
