<svg width="13" height="9" viewBox="0 0 13 9" fill="none" xmlns="http://www.w3.org/2000/svg">
<g opacity="0.59" clip-path="url(#clip0_158_2294)">
<path d="M6.5029 8.99931C5.8034 9.00087 5.11053 8.8638 4.4643 8.59604C3.81808 8.32829 3.23131 7.93514 2.7379 7.43931L0.147899 4.85431C0.101035 4.80783 0.0638378 4.75253 0.0384535 4.6916C0.0130691 4.63067 0 4.56532 0 4.49931C0 4.43331 0.0130691 4.36795 0.0384535 4.30702C0.0638378 4.24609 0.101035 4.19079 0.147899 4.14431L2.7379 1.55931C3.7365 0.560892 5.09079 0 6.5029 0C7.91501 0 9.2693 0.560892 10.2679 1.55931L12.8579 4.14431C12.9048 4.19079 12.942 4.24609 12.9673 4.30702C12.9927 4.36795 13.0058 4.43331 13.0058 4.49931C13.0058 4.56532 12.9927 4.63067 12.9673 4.6916C12.942 4.75253 12.9048 4.80783 12.8579 4.85431L10.2679 7.43931C9.77449 7.93514 9.18772 8.32829 8.5415 8.59604C7.89527 8.8638 7.2024 9.00087 6.5029 8.99931ZM1.2079 4.49931L3.4429 6.73431C4.25543 7.54404 5.35578 7.99871 6.5029 7.99871C7.65001 7.99871 8.75036 7.54404 9.5629 6.73431L11.7979 4.49931L9.5629 2.26431C8.75036 1.45458 7.65001 0.999919 6.5029 0.999919C5.35578 0.999919 4.25543 1.45458 3.4429 2.26431L1.2079 4.49931Z" fill="black"/>
<path d="M6.50391 6.49902C6.10834 6.49902 5.72167 6.38173 5.39277 6.16196C5.06387 5.9422 4.80752 5.62984 4.65615 5.26439C4.50477 4.89894 4.46517 4.49681 4.54234 4.10884C4.61951 3.72088 4.80999 3.36452 5.08969 3.08481C5.3694 2.80511 5.72576 2.61462 6.11373 2.53745C6.50169 2.46028 6.90382 2.49989 7.26927 2.65127C7.63473 2.80264 7.94708 3.05899 8.16685 3.38788C8.38661 3.71678 8.50391 4.10346 8.50391 4.49902C8.50391 5.02946 8.29319 5.53817 7.91812 5.91324C7.54305 6.28831 7.03434 6.49902 6.50391 6.49902ZM6.50391 3.49902C6.30613 3.49902 6.11279 3.55767 5.94834 3.66755C5.78389 3.77744 5.65572 3.93362 5.58003 4.11634C5.50434 4.29907 5.48454 4.50013 5.52312 4.69411C5.56171 4.8881 5.65695 5.06628 5.7968 5.20613C5.93665 5.34598 6.11484 5.44122 6.30882 5.47981C6.5028 5.5184 6.70387 5.49859 6.88659 5.4229C7.06932 5.34722 7.2255 5.21904 7.33538 5.0546C7.44526 4.89015 7.50391 4.69681 7.50391 4.49902C7.50391 4.23381 7.39855 3.97945 7.21101 3.79192C7.02348 3.60438 6.76912 3.49902 6.50391 3.49902Z" fill="black"/>
</g>
<defs>
<clipPath id="clip0_158_2294">
<rect width="13" height="9" fill="white"/>
</clipPath>
</defs>
</svg>
