<svg width="41" height="32" fill="none" xmlns="http://www.w3.org/2000/svg"><path d="M27.059 27.482H24.05V32h-1.912v-6h4.92v1.482zM27.88 26h2.152l.993 2.436.981-2.436h2.025l-2.327 4.558c-.176.363-.314.642-.453.812-.125.181-.314.34-.566.448-.251.121-.59.182-1.03.182-.24 0-.642-.036-1.208-.097v-1.212c.34.024.578.048.73.048.465 0 .741-.157.842-.472L27.88 26z" fill="#fff"/><path fill-rule="evenodd" clip-rule="evenodd" d="M14.57 6h-.013a9.05 9.05 0 00-2.737.429c.848-.233 1.594-.172 2.03.257.964.907.168 3.137-1.76 4.963-1.928 1.839-4.266 2.598-5.23 1.692-.424-.417-.501-1.091-.283-1.888a7.63 7.63 0 00-.386 3.31c.065.44.245.82.54 1.102 1.362 1.287 4.652.245 7.35-2.316 2.7-2.574 3.792-5.71 2.443-6.998-.296-.27-.669-.44-1.118-.514A9.306 9.306 0 0014.57 6zm2.262.637c1.465 1.397.424 4.67-2.339 7.292-2.763 2.635-6.194 3.627-7.659 2.23-.347-.318-.553-.735-.63-1.225a7.898 7.898 0 001.504 3.713l-.013-.037c.026.024.039.05.064.074 1.58 1.507 5.5.232 8.726-2.844 3.239-3.075 4.575-6.8 2.982-8.308a.3.3 0 00-.116-.098 8.563 8.563 0 00-3.753-1.373c.489.086.913.27 1.234.576zm-5.038-.196a8.347 8.347 0 00-3.187 1.9 7.821 7.821 0 00-2.004 3.063c-.154.625-.077 1.165.27 1.495.848.81 2.994.074 4.793-1.642 1.8-1.715 2.583-3.762 1.735-4.57-.244-.221-.579-.32-.964-.32-.206 0-.424.025-.643.074zm5.115 9.78c-3.264 3.112-7.248 4.374-8.867 2.83l-.013-.012a8.047 8.047 0 002.763 2.108c.912.318 2.146.257 3.431-.184.219-.65.694-2.083.694-2.083.296.27 1.26.429 2.07-.013.449-.257 1.002-.404 1.464-.453.129-.11.553.086.668-.037.129-.11-.038-.551.078-.674a3.48 3.48 0 01.475-1.397c.463-.76.296-1.679.013-1.96 0-.013 1.504-.454 2.197-.662.45-1.226.54-2.353.206-3.223a7.691 7.691 0 00-1.594-2.12c-.154-.147-.295-.282-.462-.405 1.4 1.63.038 5.27-3.123 8.284zm5.449-2.44c.18.405.488 1.483.013 3.138a7.602 7.602 0 00-.026-5.931c.27.784.309 1.764.013 2.794zm-3.11 4.682l-.013.024c.026.013.064.025.09.05-.026-.025-.038-.062-.051-.086l-.026.012zm-7.813 2.966c1.863.772 4.202.747 6.194.012-1.748.453-2.815.135-3.226-.037-.09.025-.167.037-.244.05-.977.22-1.966.207-2.724-.025z" fill="url(#paint0_radial_158_1988)"/><path d="M19.607 13.964l.315-.09c.642-.22 1.825-.594 2.052-.671a.154.154 0 01.176.103c.013.013.013.038.013.051.05.09.126.233.189.413.05.168.1.374.138.62.063.386.088.89.013 1.47a7.122 7.122 0 01-.365 1.587 8.461 8.461 0 00-.34 1.445c-.063.53-.05.98 0 1.342.025.245.075.451.126.632.075.271.163.439.201.503v.026c.013 0 .013.013.013.026.012.103-.076.193-.19.155h-.024v-.013a2.756 2.756 0 00-.491-.194 3.237 3.237 0 00-.617-.129 4.9 4.9 0 00-1.31 0 6.744 6.744 0 00-1.41.349 6.983 6.983 0 01-1.548.374 5.28 5.28 0 01-1.448-.026c-.24-.026-.44-.09-.604-.142-.177-.052-.315-.129-.416-.18-.012 0-.025-.013-.037-.013-.076-.026-.114-.104-.101-.181l.78-2.542c.013-.013.026-.039.038-.051.05-.065.139-.065.202-.013a.69.69 0 00.29.154c.125.052.276.078.44.078.189.013.39 0 .591-.052.177-.038.353-.116.53-.206v-.013a3.78 3.78 0 01.654-.297c.227-.077.466-.142.692-.167.24-.04.454-.04.643-.026a.43.43 0 01.125.026c0-.052-.012-.09-.012-.142a2.267 2.267 0 01.025-.645 3.842 3.842 0 01.453-1.38c.1-.181.164-.362.214-.543.05-.206.063-.413.05-.606 0-.168-.037-.323-.075-.452a.718.718 0 00-.151-.296c-.05-.065-.05-.155.013-.207a.643.643 0 01.163-.077zm.39.18l-.239.078a.982.982 0 01.101.232c.05.155.076.335.088.529.013.22-.012.451-.063.684-.05.206-.126.426-.239.619-.113.194-.201.4-.264.606a3.475 3.475 0 00-.164.671 3.125 3.125 0 00-.025.58c.025.13.05.246.1.323l1.398 1.432.932.955a11.663 11.663 0 01-.114-.58 5.974 5.974 0 01.013-1.42 6.9 6.9 0 01.352-1.496c.19-.568.302-1.071.353-1.523a5.07 5.07 0 00-.025-1.406 2.912 2.912 0 00-.126-.568c-.063-.193-.076-.31-.088-.348-.34.103-1.385.439-1.99.632zm1.41 6.954l-.944-.98-1.397-1.432c-.076-.039-.164-.09-.302-.104a2.022 2.022 0 00-.554.013c-.214.04-.44.09-.655.168a2.78 2.78 0 00-.592.271h-.012a2.208 2.208 0 01-.605.245 2.39 2.39 0 01-.667.065 2.056 2.056 0 01-.516-.09c-.088-.026-.151-.065-.227-.09l-.692 2.257c.05.013.164.038.34.103.151.039.34.09.554.13.365.064.83.09 1.372.012.44-.052.944-.155 1.486-.348a6.73 6.73 0 011.473-.362 5 5 0 011.385-.012c.214.038.402.103.554.154z" fill="#fff"/><path d="M22.149 21.22c-.065-.097-.889-1.497 0-3.87.771-2.07.327-3.25.13-3.64-.038-.061-.026-.098-.026-.11l.706.353c0 2.508-.039 4.711-.039 7.22 0 .17-.039.462-.209.62-.17.158-.457.195-.667.195L14.266 22l-.326-.694c.078.049 1.464.755 4.039-.085 2.536-.816 4.026-.073 4.17 0zm2.041-2.18v-1.015h.214v.644l.341-.644h.228v1.015h-.215v-.644l-.354.644h-.215zm1.01 0v-1.015h.278l.215.706.215-.706h.265v1.015h-.19v-.668l-.201.668h-.19l-.202-.668v.668h-.19zm1.693-.322l.228.05a.488.488 0 01-.14.223.37.37 0 01-.24.074.37.37 0 01-.29-.124.644.644 0 01-.114-.396c0-.174.038-.31.127-.409a.315.315 0 01.265-.136c.114 0 .215.05.278.136.076.1.114.248.114.446v.025h-.556a.33.33 0 00.05.186c.038.05.089.074.14.074.063 0 .113-.05.138-.149zm.013-.272a.316.316 0 00-.05-.174c-.038-.037-.076-.061-.114-.061-.05 0-.089.024-.127.061a.316.316 0 00-.05.174h.341zm.392.594v-1.015h.227v.371h.316v-.371h.227v1.015h-.227v-.42h-.316v.42h-.227zm.985 0v-1.015h.215v.644l.341-.644h.228v1.015h-.215v-.644l-.354.644h-.215zm-4.094 2.935v-1.387h.228v.929l.467-.929h.24v1.387h-.214v-.904l-.48.904h-.24zm1.176 0v-.26h.227v.26h-.227zm.91 0v-1.387h.24v.545h.454v-.545h.24v1.387h-.24v-.607h-.455v.607h-.24zm1.174 0v-.26h.215v.26h-.215zm1.213-.384l-.43-1.003h.266l.278.718.228-.718h.252l-.391 1.053a1.07 1.07 0 01-.14.272c-.05.062-.1.087-.164.087a.57.57 0 01-.164-.025v-.198h.088c.051 0 .089-.012.114-.037a.276.276 0 00.063-.149zm1.29.384v-.792h-.291v.458a.737.737 0 01-.026.186c-.012.05-.025.086-.05.111-.026.025-.05.05-.076.05-.025.012-.05.012-.101.012-.025 0-.063-.012-.14-.025v-.186h.102c.025 0 .038-.012.05-.024 0-.025.013-.062.013-.124v-.669h.746v1.003h-.228zm.454 0v-1.003h.228v.421h.24c.151 0 .252.025.29.087a.449.449 0 01.063.21c0 .186-.1.285-.316.285h-.505zm.228-.42v.26h.227c.088 0 .139-.05.139-.137a.112.112 0 00-.05-.1.37.37 0 00-.152-.024h-.164zm1.036-.583h.467v1.003h-.227v-.42h-.038a.145.145 0 00-.101.036.432.432 0 00-.076.112l-.152.272h-.252l.151-.285c.05-.086.089-.136.127-.148a.235.235 0 01-.152-.087.337.337 0 01-.063-.198c0-.1.025-.173.076-.223a.424.424 0 01.24-.062zm.24.434v-.273h-.177c-.101 0-.14.05-.14.136 0 .087.051.137.152.137h.165zm.442.57v-1.004h.215v.372h.328v-.372h.228v1.003h-.228v-.42h-.328v.42h-.215zm.935-.52c0-.1.025-.187.063-.261a.384.384 0 01.152-.186.48.48 0 01.227-.062c.127 0 .24.05.316.161a.581.581 0 01.114.36.529.529 0 01-.063.284.385.385 0 01-.152.186.336.336 0 01-.215.062.392.392 0 01-.316-.136c-.088-.1-.126-.223-.126-.409zm.227.024c0 .099.026.173.064.223a.166.166 0 00.151.087c.05 0 .101-.025.14-.087.05-.05.062-.124.062-.235 0-.1-.012-.174-.063-.223a.175.175 0 00-.139-.075.181.181 0 00-.151.075.377.377 0 00-.064.235zm1.378.495h-.556v-1.003h.505c.19 0 .29.087.29.26 0 .124-.05.198-.15.236.125.037.176.123.176.247a.278.278 0 01-.076.198.314.314 0 01-.19.062zm-.329-.842v.248h.164c.127 0 .177-.037.177-.124 0-.074-.05-.124-.177-.124h-.164zm0 .421v.26h.202c.101 0 .165-.05.165-.136a.14.14 0 00-.038-.1.63.63 0 00-.19-.024h-.139zm.948-.272l-.202-.05a.468.468 0 01.113-.223.472.472 0 01.253-.062c.089 0 .164.013.215.038.05.024.088.061.101.111.025.037.038.124.038.235v.508c.012.05.025.1.05.136h-.227l-.025-.099c-.038.037-.076.075-.127.1a.462.462 0 01-.139.024.29.29 0 01-.202-.074.32.32 0 01-.076-.223c0-.05.013-.1.026-.149.025-.037.05-.074.1-.099a.823.823 0 01.178-.074.632.632 0 00.227-.062c0-.05-.013-.087-.013-.112a.175.175 0 00-.05-.037.185.185 0 00-.088-.025.145.145 0 00-.102.038.235.235 0 00-.05.099zm.303.21a.92.92 0 01-.139.037c-.076.025-.114.038-.139.062-.025.025-.025.05-.025.087a.23.23 0 00.025.1.138.138 0 00.089.036c.038 0 .063-.012.1-.037a.128.128 0 00.064-.074.375.375 0 00.025-.161v-.05z" fill="#fff"/><path d="M26.886 13.948c-.064-6.567-5.558-11.915-12.378-11.915-6.846 0-12.43 5.385-12.43 12.002 0 6.136 4.806 11.188 10.963 11.89 1.135.136 2.359.111 3.506.087v1.638c0 .666.293.986.97.962.535-.013.866-.21 1.044-.456v-2.144h2.015V32H18.56v-2.329c-.611.32-1.198.493-1.746.493-.663 0-1.211-.197-1.632-.567-.433-.382-.65-.924-.65-1.59h-.357C6.31 27.848 0 21.638 0 13.998 0 6.273 6.489 0 14.495 0c7.304 0 13.347 5.224 14.342 12.026v.013h6.501l2.792 5.778-.956 1.923-2.792-5.792h-7.496z" fill="#fff"/><path d="M29.11 10.784l.942-1.984h6.532l2.775 5.99-.955 2.01-2.788-6.016h-6.507z" fill="#fff"/><path d="M30.75 7.594l.904-1.994h6.558L41 11.594l-.942 2.006-2.789-6.006H30.75z" fill="#fff"/><defs><radialGradient id="paint0_radial_158_1988" cx="0" cy="0" r="1" gradientUnits="userSpaceOnUse" gradientTransform="matrix(42.4346 0 0 40.6195 7.83 8.72)"><stop stop-color="#fff"/><stop offset=".329" stop-color="#fff"/><stop offset="1" stop-color="#fff"/></radialGradient></defs></svg>