<svg width="33" height="32" fill="none" xmlns="http://www.w3.org/2000/svg"><g clip-path="url(#clip0_158_2001)" clip-rule="evenodd"><path fill-rule="evenodd" d="M1.333 22.478S-.74 18.784.281 12.903c1.023-5.88 6.05-9.627 6.05-9.627L7.49 4.854s-4.233 2.514-5.21 7.944c-.976 5.43.79 8.786.79 8.786l-1.737.894zM8.068 2.12L9.12 3.75l1.526-.789-.632-1.736-1.946.895zm4.524.21L12.066.54s3.818-1.142 7.629-.104c3.81 1.037 5.895 2.408 7.312 3.945-.003-.014 0-2.367 0-2.367h2.051v5.945h-5.997V6.065h2.736s-1.689-2.28-5.576-3.472c-3.888-1.194-7.629-.263-7.629-.263zm18.08 7.195s2.074 3.694 1.052 9.573c-1.022 5.88-6.046 9.626-6.046 9.626l-1.157-1.578s4.23-2.513 5.205-7.943c.976-5.43-.788-8.784-.788-8.784l1.734-.894zm-6.729 20.356l-1.052-1.63-1.524.789.631 1.736 1.945-.895zm-4.521-.211l.525 1.79s-3.814 1.142-7.622.105c-3.808-1.038-5.892-2.408-7.308-3.946.003.015 0 2.367 0 2.367h-2.05v-5.943H8.96v1.893H6.226s1.687 2.279 5.573 3.472c3.885 1.193 7.623.263 7.623.263z" fill="#fff"/><path d="M17.459 25.32l-6.35-11.552h3.52v-7.23l6.234 11.552h-3.404v7.23z" stroke="#fff" stroke-width="1.894"/></g><defs><clipPath id="clip0_158_2001"><path fill="#fff" transform="matrix(1 0 0 -1 0 32)" d="M0 0h32.005v32H0z"/></clipPath></defs></svg>