<svg width="1440" height="1145" viewBox="0 0 1440 1145" fill="none" xmlns="http://www.w3.org/2000/svg">
<rect width="1440" height="1080" rx="3.07773" fill="#0F1D40" fill-opacity="0.9"/>
<g filter="url(#filter0_f_143_152)">
<ellipse cx="1012.58" cy="240.576" rx="386.769" ry="159.529" fill="#122043" fill-opacity="0.45"/>
</g>
<g style="mix-blend-mode:screen" opacity="0.04">
<circle cx="95.9245" cy="245.049" r="23.4842" stroke="#E1E1E1" stroke-width="0.310406"/>
<path d="M96.1301 232.666L96.1301 253.418M96.1301 253.418L89.2129 246.501M96.1301 253.418L103.047 246.501" stroke="#EDEDED" stroke-width="1.03759" stroke-linecap="round" stroke-linejoin="round"/>
<line x1="97.2563" y1="268.688" x2="97.2563" y2="284.448" stroke="#E1E1E1" stroke-width="0.415035"/>
<line x1="97.2563" y1="320.47" x2="97.2563" y2="383.508" stroke="#E1E1E1" stroke-width="0.415035"/>
<line x1="97.2563" y1="424.033" x2="97.2563" y2="446.546" stroke="#E1E1E1" stroke-width="0.415035"/>
<line x1="115.061" y1="361.202" x2="79.0386" y2="361.202" stroke="#E1E1E1" stroke-width="0.415035"/>
<rect x="79.2466" y="284.655" width="33.3555" height="35.6069" stroke="#E1E1E1" stroke-width="0.415035"/>
<rect x="79.2466" y="383.716" width="33.3555" height="40.1096" stroke="#E1E1E1" stroke-width="0.415035"/>
<path d="M179.432 238.745C180.026 238.745 180.476 238.959 180.785 239.386C181.101 239.805 181.26 240.359 181.26 241.047V244.761H180.287V241.273C180.287 240.671 180.2 240.24 180.026 239.979C179.852 239.71 179.535 239.576 179.076 239.576C178.499 239.576 178.04 239.813 177.7 240.288C177.368 240.755 177.202 241.379 177.202 242.163V244.761H176.229V241.273C176.229 240.671 176.142 240.24 175.968 239.979C175.794 239.71 175.477 239.576 175.018 239.576C174.441 239.576 173.982 239.813 173.642 240.288C173.31 240.755 173.144 241.379 173.144 242.163V244.761H172.171V238.864H173.144V239.873L172.99 240.537H173.262C173.531 239.343 174.235 238.745 175.374 238.745C175.889 238.745 176.292 238.908 176.585 239.232C176.885 239.548 177.071 239.983 177.142 240.537H177.32C177.589 239.343 178.293 238.745 179.432 238.745ZM184.696 237.927C184.451 237.927 184.245 237.848 184.079 237.689C183.921 237.531 183.842 237.333 183.842 237.096C183.842 236.867 183.921 236.673 184.079 236.515C184.245 236.357 184.451 236.277 184.696 236.277C184.934 236.277 185.135 236.357 185.301 236.515C185.467 236.673 185.551 236.867 185.551 237.096C185.551 237.333 185.467 237.531 185.301 237.689C185.135 237.848 184.934 237.927 184.696 237.927ZM182.727 244.761V243.93H184.388V239.588L183.166 239.695V238.864L184.53 238.745C185.044 238.698 185.301 238.935 185.301 239.457V243.93H186.962V244.761H182.727ZM191.524 239.576C190.891 239.576 190.377 239.809 189.981 240.276C189.594 240.743 189.4 241.368 189.4 242.151V244.761H188.427V238.864H189.4V239.884L189.246 240.561H189.519C189.645 240.007 189.898 239.568 190.278 239.244C190.666 238.911 191.168 238.745 191.785 238.745C192.473 238.745 193.011 238.947 193.398 239.35C193.786 239.754 193.98 240.355 193.98 241.154V244.761H193.019V241.285C193.019 240.675 192.896 240.24 192.651 239.979C192.414 239.71 192.038 239.576 191.524 239.576ZM179.432 246.745C180.026 246.745 180.476 246.959 180.785 247.386C181.101 247.805 181.26 248.359 181.26 249.047V252.761H180.287V249.273C180.287 248.671 180.2 248.24 180.026 247.979C179.852 247.71 179.535 247.576 179.076 247.576C178.499 247.576 178.04 247.813 177.7 248.288C177.368 248.755 177.202 249.379 177.202 250.163V252.761H176.229V249.273C176.229 248.671 176.142 248.24 175.968 247.979C175.794 247.71 175.477 247.576 175.018 247.576C174.441 247.576 173.982 247.813 173.642 248.288C173.31 248.755 173.144 249.379 173.144 250.163V252.761H172.171V246.864H173.144V247.873L172.99 248.537H173.262C173.531 247.343 174.235 246.745 175.374 246.745C175.889 246.745 176.292 246.908 176.585 247.232C176.885 247.548 177.071 247.983 177.142 248.537H177.32C177.589 247.343 178.293 246.745 179.432 246.745ZM182.843 251.124C182.843 250.111 183.487 249.538 184.777 249.403L187.126 249.178C187.07 248.102 186.517 247.564 185.465 247.564C184.99 247.564 184.595 247.683 184.278 247.92C183.97 248.157 183.815 248.537 183.815 249.059H182.866C182.866 248.418 183.1 247.873 183.566 247.422C184.033 246.971 184.666 246.745 185.465 246.745C186.279 246.745 186.92 246.991 187.387 247.481C187.861 247.971 188.099 248.616 188.099 249.415V251.93H188.965V252.761H187.921C187.454 252.761 187.221 252.532 187.221 252.073V251.752L187.375 251.135H187.09C186.798 252.298 186.038 252.88 184.812 252.88C184.488 252.88 184.199 252.84 183.946 252.761C183.701 252.674 183.511 252.571 183.376 252.452C183.242 252.326 183.131 252.18 183.044 252.013C182.957 251.839 182.902 251.685 182.878 251.551C182.854 251.408 182.843 251.266 182.843 251.124ZM183.815 251.005C183.815 251.337 183.914 251.594 184.112 251.776C184.31 251.958 184.583 252.049 184.931 252.049C185.587 252.049 186.117 251.847 186.521 251.444C186.924 251.041 187.126 250.526 187.126 249.901L184.943 250.127C184.555 250.166 184.27 250.253 184.088 250.388C183.906 250.515 183.815 250.72 183.815 251.005ZM189.96 252.761L192.179 249.949V249.664L189.96 246.864H191.111L192.902 249.237L194.694 246.864H195.845L193.626 249.664V249.949L195.845 252.761H194.694L192.902 250.376L191.111 252.761H189.96Z" fill="#EDEDED"/>
<path d="M54.2988 342.257V336.205H54.8802V337.285C55.1175 336.906 55.3904 336.609 55.6989 336.395C56.0073 336.174 56.4068 336.063 56.8972 336.063C57.8464 336.063 58.5267 336.498 58.938 337.368C59.4443 336.498 60.172 336.063 61.1212 336.063C61.8331 336.063 62.3987 336.293 62.8179 336.751C63.2372 337.21 63.4468 337.823 63.4468 338.59V342.257H62.8654V338.662C62.8654 338.013 62.7072 337.507 62.3908 337.143C62.0744 336.779 61.6354 336.597 61.0738 336.597C60.5438 336.597 60.0929 336.791 59.7211 337.178C59.3494 337.566 59.1635 338.084 59.1635 338.733V342.257H58.5821V338.626C58.5821 338.001 58.4199 337.507 58.0956 337.143C57.7792 336.779 57.3521 336.597 56.8142 336.597C56.2763 336.597 55.8175 336.807 55.4378 337.226C55.066 337.645 54.8802 338.159 54.8802 338.768V342.257H54.2988ZM65.9049 342.257V336.205H66.4863V342.257H65.9049ZM65.8337 334.627V333.832H66.5575V334.627H65.8337ZM69.0138 342.257V336.205H69.5952V337.333C70.0778 336.486 70.8055 336.063 71.7784 336.063C72.5299 336.063 73.1192 336.296 73.5463 336.763C73.9814 337.222 74.1989 337.819 74.1989 338.555V342.257H73.6175V338.662C73.6175 338.029 73.4474 337.526 73.1073 337.155C72.7672 336.783 72.2965 336.597 71.6954 336.597C71.0942 336.597 70.5919 336.803 70.1885 337.214C69.793 337.617 69.5952 338.132 69.5952 338.757V342.257H69.0138ZM54.2988 350.257V344.205H54.8802V345.285C55.1175 344.906 55.3904 344.609 55.6989 344.395C56.0073 344.174 56.4068 344.063 56.8972 344.063C57.8464 344.063 58.5267 344.498 58.938 345.368C59.4443 344.498 60.172 344.063 61.1212 344.063C61.8331 344.063 62.3987 344.293 62.8179 344.751C63.2372 345.21 63.4468 345.823 63.4468 346.59V350.257H62.8654V346.662C62.8654 346.013 62.7072 345.507 62.3908 345.143C62.0744 344.779 61.6354 344.597 61.0738 344.597C60.5438 344.597 60.0929 344.791 59.7211 345.178C59.3494 345.566 59.1635 346.084 59.1635 346.733V350.257H58.5821V346.626C58.5821 346.001 58.4199 345.507 58.0956 345.143C57.7792 344.779 57.3521 344.597 56.8142 344.597C56.2763 344.597 55.8175 344.807 55.4378 345.226C55.066 345.645 54.8802 346.159 54.8802 346.768V350.257H54.2988ZM67.6609 350.399C67.044 350.399 66.4982 350.229 66.0236 349.889C65.5569 349.549 65.3235 349.078 65.3235 348.477C65.3235 347.86 65.5648 347.377 66.0473 347.029C66.5298 346.681 67.1705 346.507 67.9694 346.507C68.6497 346.507 69.3181 346.594 69.9746 346.768V346.507C69.9746 345.906 69.8006 345.447 69.4526 345.131C69.1045 344.815 68.6141 344.656 67.9813 344.656C67.3485 344.656 66.7157 344.819 66.0829 345.143L65.8693 344.633C66.6208 344.285 67.3366 344.111 68.0169 344.111C68.8475 344.111 69.4842 344.332 69.9272 344.775C70.3385 345.186 70.5442 345.756 70.5442 346.484V350.257H69.9746V349.248C69.4288 350.015 68.6576 350.399 67.6609 350.399ZM67.6965 349.853C68.3293 349.853 68.8672 349.679 69.3102 349.331C69.7611 348.975 69.9865 348.528 69.9865 347.99V347.302C69.2746 347.12 68.5904 347.029 67.9338 347.029C67.301 347.029 66.8106 347.16 66.4626 347.421C66.1145 347.674 65.9405 348.022 65.9405 348.465C65.9405 348.884 66.1106 349.22 66.4507 349.474C66.7987 349.727 67.214 349.853 67.6965 349.853ZM72.3028 350.257L74.7826 347.172L72.3977 344.205H73.1215L75.1623 346.768L77.2031 344.205H77.9031L75.5183 347.16L77.9981 350.257H77.2743L75.1386 347.563L73.0028 350.257H72.3028Z" fill="#EDEDED"/>
<path d="M134.63 243.226V228.355H143.848V229.831H136.36V235.041H142.793V236.518H136.36V241.749H143.848V243.226H134.63ZM157.356 234.742C158.558 234.742 159.511 235.145 160.215 235.952C160.919 236.759 161.271 237.787 161.271 239.037C161.271 240.295 160.919 241.327 160.215 242.134C159.511 242.941 158.558 243.344 157.356 243.344C156.296 243.344 155.43 243.048 154.757 242.454C154.093 241.853 153.697 241.031 153.571 239.986H154.544C154.639 240.793 154.927 241.418 155.41 241.861C155.892 242.296 156.541 242.514 157.356 242.514C158.242 242.514 158.934 242.237 159.432 241.683C159.93 241.129 160.215 240.386 160.286 239.452H156.751V238.622H160.286C160.215 237.696 159.926 236.957 159.42 236.403C158.922 235.849 158.234 235.573 157.356 235.573C156.541 235.573 155.892 235.79 155.41 236.225C154.927 236.66 154.639 237.281 154.544 238.088H153.571C153.697 237.052 154.093 236.237 154.757 235.644C155.43 235.043 156.296 234.742 157.356 234.742ZM162.711 243.226V242.348L165.512 238.847L162.83 235.644V234.754H168.442V235.703H165.393C165.219 235.703 165.005 235.703 164.752 235.703C164.507 235.703 164.321 235.699 164.195 235.691L166.627 238.574V238.895L163.934 242.276C164.234 242.276 164.523 242.276 164.8 242.276C165.085 242.268 165.385 242.265 165.701 242.265H168.585V243.226H162.711Z" fill="#EDEDED"/>
<path d="M16.9569 340.721L21.3654 335.237L17.1256 329.963H18.4123L22.0404 334.52L25.6685 329.963H26.913L22.6732 335.216L27.0818 340.721H25.7951L21.9982 335.933L18.2014 340.721H16.9569ZM38.9665 340.863C37.7009 340.863 36.6014 340.389 35.668 339.44L36.0833 339.012C36.5262 339.448 36.9692 339.772 37.4122 339.985C37.8551 340.199 38.3653 340.306 38.9428 340.306C39.892 340.306 40.6949 339.974 41.3514 339.309C42.0158 338.645 42.3797 337.814 42.443 336.817H37.9698V336.248H42.443C42.3718 335.267 42.0079 334.452 41.3514 333.804C40.6949 333.155 39.8959 332.831 38.9546 332.831C37.9263 332.831 36.9929 333.238 36.1545 334.053L35.7629 333.626C36.2533 333.175 36.7359 332.839 37.2105 332.617C37.6851 332.388 38.2625 332.273 38.9428 332.273C40.1293 332.273 41.118 332.692 41.909 333.531C42.7001 334.369 43.0956 335.39 43.0956 336.592C43.0956 337.794 42.7001 338.807 41.909 339.629C41.126 340.452 40.1451 340.863 38.9665 340.863ZM44.6532 340.721V339.843L47.4534 336.343L44.7719 333.139V332.249H50.3841V333.199H47.3347C47.1607 333.199 46.9472 333.199 46.694 333.199C46.4488 333.199 46.2629 333.195 46.1364 333.187L48.5687 336.07V336.39L45.8753 339.772C46.1759 339.772 46.4646 339.772 46.7415 339.772C47.0263 339.764 47.3268 339.76 47.6432 339.76H50.5265V340.721H44.6532Z" fill="#EDEDED"/>
<path d="M124.392 396.005L128.336 391.006V390.5L124.392 385.522H126.438L129.623 389.741L132.808 385.522H134.854L130.91 390.5V391.006L134.854 396.005H132.808L129.623 391.766L126.438 396.005H124.392ZM150.894 387.64V388.471H147.999V396.005H147.038V388.471H144.12V387.64H150.894ZM152.285 391.675C152.285 390.251 152.613 389.203 153.27 388.53C153.926 387.858 154.797 387.522 155.88 387.522C156.79 387.522 157.514 387.767 158.052 388.257C158.597 388.748 158.87 389.44 158.87 390.334C158.87 390.99 158.712 391.592 158.396 392.137C158.079 392.675 157.636 393.134 157.067 393.514C156.497 393.893 155.849 394.21 155.121 394.463C154.393 394.716 153.582 394.914 152.689 395.056V395.329L153.377 395.175H158.87V396.005H152.404V394.309C152.617 394.277 152.855 394.234 153.116 394.178C153.377 394.123 153.737 394.032 154.195 393.905C154.654 393.779 155.081 393.617 155.477 393.419C155.88 393.213 156.272 392.972 156.651 392.695C157.031 392.418 157.332 392.074 157.553 391.663C157.783 391.251 157.897 390.804 157.897 390.322C157.897 389.681 157.723 389.195 157.375 388.863C157.035 388.522 156.545 388.352 155.904 388.352C154.14 388.352 153.258 389.46 153.258 391.675H152.285Z" fill="#EDEDED"/>
<path d="M43.3531 453.29V438.524H44.45V448.227L53.8577 438.524H55.3553L48.9007 445.042L55.6295 453.29H54.1952L48.1202 445.823L44.45 449.535V453.29H43.3531ZM66.9552 453.427C65.7378 453.427 64.7601 452.947 64.022 451.989L64.4785 451.612C65.1481 452.464 65.9775 452.89 66.9667 452.89C67.5221 452.89 67.9901 452.723 68.3705 452.388C68.751 452.053 68.9412 451.623 68.9412 451.098C68.9412 450.551 68.7091 450.124 68.245 449.82C67.7884 449.516 67.1911 449.364 66.4531 449.364H66.0193L65.871 449.033L68.6216 445.86H64.4329V445.3H69.432V445.723L66.727 448.816C67.0846 448.839 67.4194 448.899 67.7314 448.998C68.0509 449.09 68.3515 449.223 68.633 449.398C68.9146 449.565 69.139 449.797 69.3064 450.094C69.4738 450.383 69.5575 450.718 69.5575 451.098C69.5575 451.776 69.2988 452.335 68.7814 452.776C68.2716 453.21 67.6629 453.427 66.9552 453.427Z" fill="#EDEDED"/>
</g>
<g opacity="0.15">
<path d="M1251.27 575.9H1249.01V584.015H1251.27V585.02H1245.56V584.015H1247.83V575.9H1245.56V574.895H1251.27V575.9ZM1252.22 581.444C1252.22 580.381 1252.55 579.5 1253.2 578.801C1253.86 578.093 1254.75 577.738 1255.87 577.738C1256.37 577.738 1256.85 577.829 1257.31 578.011C1257.77 578.184 1258.18 578.495 1258.56 578.945C1258.93 579.385 1259.15 579.931 1259.2 580.582H1258.01C1257.83 579.357 1257.12 578.744 1255.87 578.744C1255.07 578.744 1254.45 578.998 1254.03 579.505C1253.61 580.013 1253.4 580.659 1253.4 581.444C1253.4 582.229 1253.61 582.88 1254.03 583.397C1254.45 583.905 1255.07 584.159 1255.87 584.159C1257.12 584.159 1257.83 583.546 1258.01 582.32H1259.2C1259.15 582.971 1258.93 583.522 1258.56 583.972C1258.18 584.412 1257.77 584.724 1257.31 584.905C1256.85 585.078 1256.37 585.164 1255.87 585.164C1254.75 585.164 1253.86 584.815 1253.2 584.116C1252.55 583.407 1252.22 582.516 1252.22 581.444ZM1260.83 577.882H1262.01V578.931L1261.82 579.749H1262.15C1262.31 579.156 1262.64 578.672 1263.13 578.299C1263.61 577.925 1264.25 577.738 1265.04 577.738C1266.05 577.738 1266.87 578.088 1267.49 578.787C1268.12 579.486 1268.44 580.376 1268.44 581.458C1268.44 582.531 1268.12 583.417 1267.49 584.116C1266.87 584.815 1266.05 585.164 1265.04 585.164C1264.26 585.164 1263.62 584.982 1263.13 584.618C1262.64 584.245 1262.31 583.761 1262.15 583.168H1261.82L1262.01 583.972V587.634H1260.83V577.882ZM1262.01 581.458C1262.01 582.358 1262.26 583.034 1262.75 583.484C1263.26 583.934 1263.91 584.159 1264.69 584.159C1265.47 584.159 1266.09 583.934 1266.56 583.484C1267.03 583.034 1267.26 582.358 1267.26 581.458C1267.26 580.558 1267.03 579.883 1266.56 579.433C1266.09 578.974 1265.47 578.744 1264.69 578.744C1263.91 578.744 1263.26 578.969 1262.75 579.419C1262.26 579.869 1262.01 580.549 1262.01 581.458ZM1275.17 579.462H1282.02V580.424H1275.17V579.462ZM1275.17 582.392H1282.02V583.34H1275.17V582.392Z" fill="white"/>
<path d="M1317.95 570.233C1317.29 570.233 1316.74 569.687 1316.74 569.026C1316.74 568.366 1317.29 567.82 1317.95 567.82C1318.61 567.82 1319.16 568.366 1319.16 569.026C1319.16 569.687 1318.61 570.233 1317.95 570.233Z" fill="white"/>
<path d="M1309.84 593.597C1309.08 593.597 1308.45 593.879 1307.98 594.444C1307.51 595.009 1307.27 595.766 1307.27 596.713V599.873H1306.09V592.735H1307.27V593.97L1307.09 594.789H1307.42C1307.57 594.119 1307.88 593.587 1308.33 593.195C1308.8 592.792 1309.41 592.591 1310.16 592.591C1310.99 592.591 1311.64 592.836 1312.11 593.324C1312.58 593.812 1312.82 594.54 1312.82 595.507V599.873H1311.65V595.665C1311.65 594.928 1311.5 594.401 1311.21 594.085C1310.92 593.76 1310.47 593.597 1309.84 593.597ZM1322.56 589.748V590.753H1319.06V599.873H1317.89V590.753H1314.36V589.748H1322.56ZM1329.62 599.873L1328.34 595.909H1324.27L1323.01 599.873H1321.83L1325.11 589.748H1327.52L1330.78 599.873H1329.62ZM1324.6 594.904H1328.02L1326.47 590.078H1326.14L1324.6 594.904Z" fill="white"/>
<path d="M1330.61 572.174H1329.23L1326.69 569.071C1326.57 569.1 1326.45 569.114 1326.33 569.114H1325.82V572.174H1324.65V565.035H1325.82V568.066H1326.41L1328.27 565.567C1328.52 565.213 1328.87 565.035 1329.31 565.035H1330.43V566.041H1329.27L1327.52 568.396L1330.61 572.174ZM1331.41 568.597C1331.41 567.535 1331.74 566.654 1332.39 565.955C1333.05 565.246 1333.94 564.892 1335.06 564.892C1335.56 564.892 1336.04 564.983 1336.5 565.165C1336.96 565.337 1337.37 565.648 1337.75 566.098C1338.12 566.539 1338.34 567.085 1338.39 567.736H1337.2C1337.02 566.51 1336.31 565.897 1335.06 565.897C1334.26 565.897 1333.64 566.151 1333.22 566.658C1332.8 567.166 1332.59 567.812 1332.59 568.597C1332.59 569.383 1332.8 570.034 1333.22 570.551C1333.64 571.058 1334.26 571.312 1335.06 571.312C1336.31 571.312 1337.02 570.699 1337.2 569.474H1338.39C1338.34 570.125 1338.12 570.675 1337.75 571.125C1337.37 571.566 1336.96 571.877 1336.5 572.059C1336.04 572.231 1335.56 572.317 1335.06 572.317C1333.94 572.317 1333.05 571.968 1332.39 571.269C1331.74 570.56 1331.41 569.67 1331.41 568.597ZM1338.91 572.174L1341.6 568.77V568.425L1338.91 565.035H1340.31L1342.48 567.908L1344.65 565.035H1346.04L1343.35 568.425V568.77L1346.04 572.174H1344.65L1342.48 569.287L1340.31 572.174H1338.91Z" fill="white"/>
<path d="M1295.26 563.053H1293.01V571.168H1295.26V572.174H1289.56V571.168H1291.83V563.053H1289.56V562.048H1295.26V563.053ZM1296.22 568.597C1296.22 567.535 1296.55 566.654 1297.2 565.955C1297.86 565.246 1298.75 564.892 1299.87 564.892C1300.37 564.892 1300.84 564.983 1301.3 565.165C1301.76 565.337 1302.18 565.648 1302.55 566.098C1302.93 566.539 1303.14 567.085 1303.2 567.736H1302.01C1301.83 566.51 1301.11 565.897 1299.87 565.897C1299.06 565.897 1298.45 566.151 1298.03 566.658C1297.61 567.166 1297.4 567.812 1297.4 568.597C1297.4 569.383 1297.61 570.034 1298.03 570.551C1298.45 571.058 1299.06 571.312 1299.87 571.312C1301.11 571.312 1301.83 570.699 1302.01 569.474H1303.2C1303.14 570.125 1302.93 570.675 1302.55 571.125C1302.18 571.566 1301.76 571.877 1301.3 572.059C1300.84 572.231 1300.37 572.317 1299.87 572.317C1298.75 572.317 1297.86 571.968 1297.2 571.269C1296.55 570.56 1296.22 569.67 1296.22 568.597ZM1304.54 568.597C1304.54 567.544 1304.89 566.663 1305.59 565.955C1306.28 565.246 1307.19 564.892 1308.31 564.892C1309.43 564.892 1310.33 565.246 1311.01 565.955C1311.71 566.663 1312.06 567.544 1312.06 568.597C1312.06 569.66 1311.71 570.546 1311.01 571.254C1310.33 571.963 1309.43 572.317 1308.31 572.317C1307.19 572.317 1306.28 571.963 1305.59 571.254C1304.89 570.546 1304.54 569.66 1304.54 568.597ZM1305.71 568.597C1305.71 569.383 1305.94 570.034 1306.4 570.551C1306.86 571.058 1307.5 571.312 1308.31 571.312C1309.13 571.312 1309.76 571.053 1310.21 570.536C1310.67 570.019 1310.9 569.373 1310.9 568.597C1310.9 567.822 1310.67 567.18 1310.21 566.673C1309.76 566.156 1309.13 565.897 1308.31 565.897C1307.5 565.897 1306.86 566.156 1306.4 566.673C1305.94 567.18 1305.71 567.822 1305.71 568.597Z" fill="white"/>
<line x1="1290.3" y1="580.153" x2="1345.7" y2="580.153" stroke="white" stroke-opacity="0.55" stroke-width="1.02591"/>
</g>
<g opacity="0.28">
<path d="M499.815 835.405L493.434 840.628L499.815 845.866H498.064L492.663 841.415V845.866H491.446V835.405H492.663V839.857L498.064 835.405H499.815ZM505.023 840.704H505.875V845.866H505.023V843.997L501.793 844.204C501.315 844.232 501.076 843.997 501.076 843.498V840.704H501.928V843.477L505.023 843.27V840.704Z" fill="white" fill-opacity="0.23"/>
<path d="M513.722 840.124H520.8V841.118H513.722V840.124ZM513.722 843.151H520.8V844.13H513.722V843.151Z" fill="white" fill-opacity="0.23"/>
<line x1="532.289" y1="841.173" x2="588.674" y2="841.172" stroke="white" stroke-opacity="0.22" stroke-width="0.741902"/>
<path d="M547.23 823.832H544.9V832.215H547.23V833.254H541.339V832.215H543.684V823.832H541.339V822.793H547.23V823.832ZM555.286 827.988C555.806 827.988 556.2 828.175 556.47 828.549C556.747 828.916 556.886 829.4 556.886 830.003V833.254H556.034V830.2C556.034 829.674 555.958 829.297 555.806 829.068C555.653 828.833 555.376 828.715 554.975 828.715C554.469 828.715 554.067 828.923 553.77 829.338C553.479 829.747 553.333 830.294 553.333 830.979V833.254H552.482V830.2C552.482 829.674 552.406 829.297 552.253 829.068C552.101 828.833 551.824 828.715 551.422 828.715C550.917 828.715 550.515 828.923 550.217 829.338C549.927 829.747 549.781 830.294 549.781 830.979V833.254H548.93V828.092H549.781V828.975L549.646 829.556H549.885C550.121 828.511 550.737 827.988 551.734 827.988C552.184 827.988 552.537 828.13 552.793 828.414C553.057 828.691 553.219 829.071 553.282 829.556H553.437C553.673 828.511 554.289 827.988 555.286 827.988ZM559.686 827.271C559.472 827.271 559.292 827.202 559.146 827.063C559.008 826.925 558.939 826.752 558.939 826.544C558.939 826.343 559.008 826.174 559.146 826.035C559.292 825.897 559.472 825.827 559.686 825.827C559.894 825.827 560.071 825.897 560.216 826.035C560.362 826.174 560.434 826.343 560.434 826.544C560.434 826.752 560.362 826.925 560.216 827.063C560.071 827.202 559.894 827.271 559.686 827.271ZM557.962 833.254V832.527H559.416V828.725L558.347 828.819V828.092L559.541 827.988C559.991 827.946 560.216 828.154 560.216 828.611V832.527H561.67V833.254H557.962ZM565.455 828.715C564.902 828.715 564.451 828.919 564.105 829.328C563.766 829.736 563.596 830.283 563.596 830.969V833.254H562.745V828.092H563.596V828.985L563.461 829.577H563.7C563.811 829.092 564.033 828.708 564.365 828.424C564.704 828.133 565.144 827.988 565.684 827.988C566.286 827.988 566.757 828.164 567.097 828.518C567.436 828.871 567.606 829.397 567.606 830.096V833.254H566.764V830.211C566.764 829.677 566.657 829.297 566.442 829.068C566.234 828.833 565.906 828.715 565.455 828.715Z" fill="white" fill-opacity="0.23"/>
<path d="M554.459 848.314H552.13V856.698H554.459V857.737H548.568V856.698H550.913V848.314H548.568V847.276H554.459V848.314ZM555.951 855.15C555.951 854.382 556.186 853.745 556.657 853.239C557.135 852.727 557.779 852.471 558.589 852.471C558.949 852.471 559.295 852.536 559.628 852.668C559.96 852.793 560.261 853.018 560.531 853.343C560.802 853.662 560.957 854.056 560.999 854.527H560.137C560.005 853.641 559.489 853.198 558.589 853.198C558.008 853.198 557.564 853.381 557.26 853.748C556.955 854.115 556.803 854.582 556.803 855.15C556.803 855.718 556.955 856.189 557.26 856.563C557.564 856.93 558.008 857.113 558.589 857.113C559.489 857.113 560.005 856.67 560.137 855.784H560.999C560.957 856.255 560.802 856.653 560.531 856.978C560.261 857.297 559.96 857.522 559.628 857.653C559.295 857.778 558.949 857.84 558.589 857.84C557.779 857.84 557.135 857.588 556.657 857.082C556.186 856.57 555.951 855.926 555.951 855.15ZM561.966 855.15C561.966 854.389 562.219 853.752 562.724 853.239C563.23 852.727 563.887 852.471 564.698 852.471C565.501 852.471 566.152 852.727 566.65 853.239C567.156 853.752 567.408 854.389 567.408 855.15C567.408 855.919 567.156 856.559 566.65 857.072C566.152 857.584 565.501 857.84 564.698 857.84C563.887 857.84 563.23 857.584 562.724 857.072C562.219 856.559 561.966 855.919 561.966 855.15ZM562.818 855.15C562.818 855.718 562.984 856.189 563.316 856.563C563.649 856.93 564.109 857.113 564.698 857.113C565.286 857.113 565.743 856.926 566.069 856.552C566.401 856.179 566.567 855.711 566.567 855.15C566.567 854.589 566.401 854.125 566.069 853.758C565.743 853.385 565.286 853.198 564.698 853.198C564.109 853.198 563.649 853.385 563.316 853.758C562.984 854.125 562.818 854.589 562.818 855.15Z" fill="white" fill-opacity="0.23"/>
<path d="M573.473 826.525C572.545 825.999 571.832 825.358 571.333 824.604C570.842 823.849 570.596 823.007 570.596 822.08C570.596 821.152 570.842 820.31 571.333 819.556C571.832 818.801 572.545 818.16 573.473 817.634L573.691 817.977C571.988 819.022 571.136 820.39 571.136 822.08C571.136 823.769 571.988 825.137 573.691 826.182L573.473 826.525ZM574.82 825.061V824.655L577.531 822.204C578.133 821.657 578.552 821.204 578.788 820.844C579.023 820.477 579.141 820.103 579.141 819.722C579.141 819.265 578.978 818.891 578.653 818.6C578.334 818.309 577.95 818.164 577.5 818.164C577.057 818.164 576.669 818.275 576.337 818.496C576.011 818.718 575.689 819.057 575.371 819.514L574.965 819.244C575.312 818.718 575.679 818.327 576.066 818.07C576.454 817.814 576.949 817.686 577.552 817.686C578.168 817.686 578.68 817.88 579.089 818.268C579.504 818.649 579.712 819.126 579.712 819.701C579.712 820.179 579.577 820.615 579.307 821.01C579.044 821.404 578.573 821.91 577.895 822.526L575.672 824.541H579.785V825.061H574.82ZM581.3 826.525L581.082 826.182C582.785 825.137 583.637 823.769 583.637 822.08C583.637 820.39 582.785 819.022 581.082 817.977L581.3 817.634C582.228 818.16 582.937 818.801 583.429 819.556C583.928 820.31 584.177 821.152 584.177 822.08C584.177 823.007 583.928 823.849 583.429 824.604C582.937 825.358 582.228 825.999 581.3 826.525Z" fill="white" fill-opacity="0.23"/>
<path d="M599.801 836.35L604.747 841.296L599.801 846.242" stroke="white" stroke-opacity="0.23" stroke-width="0.741902" stroke-linecap="round" stroke-linejoin="round"/>
<path d="M613.25 846.608V846.029L617.123 842.528C617.984 841.746 618.582 841.098 618.918 840.584C619.255 840.06 619.423 839.525 619.423 838.981C619.423 838.329 619.19 837.794 618.725 837.379C618.27 836.963 617.721 836.756 617.078 836.756C616.445 836.756 615.891 836.914 615.417 837.231C614.952 837.547 614.492 838.032 614.037 838.685L613.458 838.299C613.953 837.547 614.477 836.988 615.031 836.622C615.585 836.256 616.292 836.073 617.153 836.073C618.033 836.073 618.765 836.35 619.349 836.904C619.942 837.448 620.239 838.131 620.239 838.952C620.239 839.634 620.046 840.257 619.66 840.821C619.284 841.385 618.612 842.107 617.642 842.988L614.467 845.866H620.343V846.608H613.25Z" fill="white" fill-opacity="0.23"/>
</g>
<g opacity="0.1">
<path d="M903.812 552.848H899.818V567.219H903.812V569H893.713V567.219H897.732V552.848H893.713V551.067H903.812V552.848ZM917.622 559.973C918.513 559.973 919.189 560.293 919.652 560.934C920.127 561.563 920.364 562.394 920.364 563.427V569H918.904V563.765C918.904 562.863 918.774 562.216 918.513 561.824C918.251 561.421 917.777 561.219 917.088 561.219C916.222 561.219 915.533 561.575 915.023 562.287C914.524 562.988 914.275 563.925 914.275 565.101V569H912.815V563.765C912.815 562.863 912.684 562.216 912.423 561.824C912.162 561.421 911.687 561.219 910.999 561.219C910.132 561.219 909.444 561.575 908.933 562.287C908.435 562.988 908.185 563.925 908.185 565.101V569H906.725V560.151H908.185V561.664L907.954 562.661H908.363C908.767 560.869 909.823 559.973 911.533 559.973C912.304 559.973 912.91 560.216 913.349 560.703C913.8 561.177 914.079 561.83 914.186 562.661H914.453C914.856 560.869 915.913 559.973 917.622 559.973ZM925.166 558.744C924.798 558.744 924.489 558.625 924.24 558.388C924.002 558.15 923.884 557.854 923.884 557.498C923.884 557.153 924.002 556.862 924.24 556.625C924.489 556.388 924.798 556.269 925.166 556.269C925.522 556.269 925.824 556.388 926.074 556.625C926.323 556.862 926.448 557.153 926.448 557.498C926.448 557.854 926.323 558.15 926.074 558.388C925.824 558.625 925.522 558.744 925.166 558.744ZM922.21 569V567.754H924.703V561.237L922.869 561.397V560.151L924.916 559.973C925.688 559.901 926.074 560.257 926.074 561.041V567.754H928.566V569H922.21ZM935.055 561.219C934.106 561.219 933.334 561.569 932.741 562.269C932.159 562.97 931.868 563.908 931.868 565.083V569H930.408V560.151H931.868V561.682L931.637 562.697H932.046C932.236 561.866 932.616 561.207 933.186 560.72C933.767 560.222 934.521 559.973 935.447 559.973C936.48 559.973 937.287 560.275 937.869 560.881C938.45 561.486 938.741 562.388 938.741 563.587V569H937.299V563.783C937.299 562.869 937.115 562.216 936.747 561.824C936.391 561.421 935.827 561.219 935.055 561.219Z" fill="white" fill-opacity="0.35"/>
</g>
<path d="M1228.68 802.072C1229.42 802.072 1229.99 802.341 1230.38 802.879C1230.78 803.408 1230.98 804.105 1230.98 804.972V809.651H1229.75V805.256C1229.75 804.499 1229.64 803.956 1229.42 803.627C1229.2 803.288 1228.81 803.118 1228.23 803.118C1227.5 803.118 1226.92 803.417 1226.49 804.015C1226.07 804.603 1225.87 805.391 1225.87 806.377V809.651H1224.64V805.256C1224.64 804.499 1224.53 803.956 1224.31 803.627C1224.09 803.288 1223.69 803.118 1223.11 803.118C1222.39 803.118 1221.81 803.417 1221.38 804.015C1220.96 804.603 1220.75 805.391 1220.75 806.377V809.651H1219.53V802.222H1220.75V803.492L1220.56 804.329H1220.9C1221.24 802.824 1222.13 802.072 1223.56 802.072C1224.21 802.072 1224.72 802.276 1225.09 802.685C1225.47 803.084 1225.7 803.632 1225.79 804.329H1226.01C1226.35 802.824 1227.24 802.072 1228.68 802.072ZM1235.01 801.041C1234.7 801.041 1234.44 800.941 1234.23 800.742C1234.03 800.542 1233.93 800.293 1233.93 799.994C1233.93 799.705 1234.03 799.461 1234.23 799.262C1234.44 799.062 1234.7 798.963 1235.01 798.963C1235.31 798.963 1235.56 799.062 1235.77 799.262C1235.98 799.461 1236.09 799.705 1236.09 799.994C1236.09 800.293 1235.98 800.542 1235.77 800.742C1235.56 800.941 1235.31 801.041 1235.01 801.041ZM1232.53 809.651V808.605H1234.62V803.133L1233.08 803.268V802.222L1234.8 802.072C1235.45 802.012 1235.77 802.311 1235.77 802.969V808.605H1237.86V809.651H1232.53ZM1243.31 803.118C1242.52 803.118 1241.87 803.412 1241.37 804.001C1240.88 804.589 1240.64 805.376 1240.64 806.363V809.651H1239.41V802.222H1240.64V803.507L1240.44 804.359H1240.79C1240.95 803.662 1241.26 803.109 1241.74 802.7C1242.23 802.281 1242.86 802.072 1243.64 802.072C1244.51 802.072 1245.19 802.326 1245.67 802.834C1246.16 803.343 1246.41 804.1 1246.41 805.107V809.651H1245.2V805.271C1245.2 804.504 1245.04 803.956 1244.73 803.627C1244.43 803.288 1243.96 803.118 1243.31 803.118ZM1228.68 816.072C1229.42 816.072 1229.99 816.341 1230.38 816.879C1230.78 817.408 1230.98 818.105 1230.98 818.972V823.651H1229.75V819.256C1229.75 818.499 1229.64 817.956 1229.42 817.627C1229.2 817.288 1228.81 817.118 1228.23 817.118C1227.5 817.118 1226.92 817.417 1226.49 818.015C1226.07 818.603 1225.87 819.391 1225.87 820.377V823.651H1224.64V819.256C1224.64 818.499 1224.53 817.956 1224.31 817.627C1224.09 817.288 1223.69 817.118 1223.11 817.118C1222.39 817.118 1221.81 817.417 1221.38 818.015C1220.96 818.603 1220.75 819.391 1220.75 820.377V823.651H1219.53V816.222H1220.75V817.492L1220.56 818.329H1220.9C1221.24 816.824 1222.13 816.072 1223.56 816.072C1224.21 816.072 1224.72 816.276 1225.09 816.685C1225.47 817.084 1225.7 817.632 1225.79 818.329H1226.01C1226.35 816.824 1227.24 816.072 1228.68 816.072ZM1232.67 821.588C1232.67 820.313 1233.49 819.59 1235.11 819.421L1238.07 819.137C1238 817.781 1237.3 817.104 1235.98 817.104C1235.38 817.104 1234.88 817.253 1234.48 817.552C1234.09 817.851 1233.9 818.329 1233.9 818.987H1232.7C1232.7 818.18 1233 817.492 1233.59 816.924C1234.17 816.356 1234.97 816.072 1235.98 816.072C1237 816.072 1237.81 816.381 1238.4 816.999C1239 817.617 1239.3 818.429 1239.3 819.436V822.605H1240.39V823.651H1239.07C1238.48 823.651 1238.19 823.362 1238.19 822.784V822.381L1238.38 821.603H1238.03C1237.66 823.068 1236.7 823.801 1235.16 823.801C1234.75 823.801 1234.38 823.751 1234.06 823.651C1233.75 823.542 1233.52 823.412 1233.35 823.263C1233.18 823.103 1233.04 822.919 1232.93 822.71C1232.82 822.49 1232.75 822.296 1232.72 822.127C1232.69 821.947 1232.67 821.768 1232.67 821.588ZM1233.9 821.439C1233.9 821.857 1234.02 822.181 1234.27 822.411C1234.52 822.64 1234.87 822.754 1235.3 822.754C1236.13 822.754 1236.8 822.5 1237.31 821.992C1237.82 821.484 1238.07 820.836 1238.07 820.049L1235.32 820.333C1234.83 820.382 1234.47 820.492 1234.24 820.661C1234.01 820.821 1233.9 821.08 1233.9 821.439ZM1241.34 823.651L1244.14 820.108V819.75L1241.34 816.222H1242.79L1245.05 819.211L1247.31 816.222H1248.76L1245.96 819.75V820.108L1248.76 823.651H1247.31L1245.05 820.647L1242.79 823.651H1241.34Z" fill="white" fill-opacity="0.25"/>
<path d="M1173.34 809.138L1180 799.951V799.136L1173.34 789.976H1175.89L1181.76 798.211L1187.66 789.976H1190.19L1183.53 799.136V799.951L1190.19 809.138H1187.66L1181.76 800.875L1175.89 809.138H1173.34ZM1200.85 809.138V807.73L1205.34 802.117L1201.04 796.98V795.553H1210.04V797.075H1205.15C1204.87 797.075 1204.53 797.075 1204.12 797.075C1203.73 797.075 1203.43 797.069 1203.23 797.056L1207.13 801.68V802.193L1202.81 807.616C1203.29 807.616 1203.75 807.616 1204.2 807.616C1204.66 807.603 1205.14 807.597 1205.64 807.597H1210.27V809.138H1200.85Z" fill="white" fill-opacity="0.25"/>
<path d="M43.2585 749.527L48.983 742.202L43.4636 735.164H44.7358L49.6396 741.484L54.523 735.164H55.7746L50.2757 742.181L55.9798 749.527H54.7076L49.5986 742.899L44.5101 749.527H43.2585ZM63.9508 749.527V748.009L68.7931 741.956L64.156 736.416V734.877H73.8611V736.518H68.5879C68.287 736.518 67.9176 736.518 67.4799 736.518C67.0559 736.518 66.7344 736.511 66.5156 736.498L70.7218 741.484V742.038L66.0642 747.885C66.584 747.885 67.0832 747.885 67.562 747.885C68.0544 747.872 68.5742 747.865 69.1214 747.865H74.1073V749.527H63.9508Z" fill="black" fill-opacity="0.06"/>
<path opacity="0.55" d="M56.3867 792.162V783.981H57.9009V791.922C57.9009 793.288 58.1779 794.292 58.7319 794.932C59.2859 795.572 60.2215 795.892 61.5388 795.892C62.8561 795.892 63.7917 795.572 64.3457 794.932C64.912 794.292 65.1952 793.288 65.1952 791.922V783.981H66.7094V792.162C66.7094 795.51 64.9859 797.185 61.5388 797.185C58.1041 797.185 56.3867 795.51 56.3867 792.162ZM68.8522 790.961C68.8522 789.189 69.2339 787.847 69.9971 786.936C70.7727 786.012 72.0038 785.305 73.6904 784.812C74.7492 784.517 75.4386 784.277 75.7587 784.092C76.0787 783.907 76.2819 783.643 76.3681 783.298H78.1962C78.0977 783.84 77.8454 784.283 77.4391 784.628C77.0452 784.972 76.6574 785.212 76.2757 785.348C75.9064 785.471 75.2416 785.655 74.2814 785.902C74.0967 785.951 73.9613 785.988 73.8751 786.012C72.6194 786.333 71.6899 786.788 71.0867 787.379C70.4957 787.958 70.1449 788.782 70.0341 789.853L69.6093 790.906H70.0341C70.2434 789.921 70.7235 789.133 71.4745 788.542C72.2254 787.939 73.1303 787.638 74.189 787.638C75.5802 787.638 76.6512 788.068 77.4022 788.93C78.1655 789.78 78.5471 790.9 78.5471 792.291C78.5471 793.756 78.1347 794.938 77.3098 795.837C76.485 796.735 75.2847 797.185 73.7089 797.185C72.1331 797.185 70.9266 796.655 70.0895 795.597C69.2646 794.538 68.8522 792.993 68.8522 790.961ZM70.3665 792.494C70.3665 793.442 70.6496 794.249 71.2159 794.913C71.7945 795.566 72.6255 795.892 73.7089 795.892C74.8292 795.892 75.6602 795.584 76.2019 794.969C76.7559 794.341 77.0328 793.454 77.0328 792.31C77.0328 791.238 76.7866 790.407 76.2942 789.817C75.8141 789.226 75.0693 788.93 74.0598 788.93C72.9395 788.93 72.0408 789.25 71.3637 789.89C70.6989 790.531 70.3665 791.399 70.3665 792.494ZM86.7763 792.033H88.2906C88.2906 793.424 88.5922 794.415 89.1954 795.006C89.811 795.597 90.7897 795.892 92.1316 795.892C94.3722 795.892 95.4925 794.987 95.4925 793.177C95.4925 791.589 94.6553 790.795 92.981 790.795H91.1713V789.503H92.981C94.5322 789.503 95.3078 788.819 95.3078 787.453C95.3078 785.877 94.2491 785.089 92.1316 785.089C90.8389 785.089 89.9033 785.348 89.3247 785.865C88.7584 786.37 88.4752 787.164 88.4752 788.247H86.961C86.961 786.794 87.4042 785.692 88.2906 784.941C89.177 784.178 90.4573 783.797 92.1316 783.797C93.6458 783.797 94.8031 784.117 95.6033 784.757C96.4158 785.385 96.8221 786.216 96.8221 787.25C96.8221 788.776 95.9849 789.669 94.3106 789.927V790.352C95.2093 790.537 95.8803 790.857 96.3235 791.312C96.779 791.756 97.0067 792.451 97.0067 793.399C97.0067 794.569 96.582 795.492 95.7325 796.169C94.8831 796.846 93.6828 797.185 92.1316 797.185C88.5614 797.185 86.7763 795.467 86.7763 792.033ZM99.6983 789.853H108.507V791.091H99.6983V789.853ZM99.6983 793.621H108.507V794.839H99.6983V793.621ZM122.866 783.797C124.627 783.797 125.987 784.418 126.948 785.662C127.908 786.893 128.388 788.499 128.388 790.481C128.388 792.476 127.908 794.095 126.948 795.338C125.987 796.569 124.627 797.185 122.866 797.185C121.094 797.185 119.721 796.569 118.748 795.338C117.788 794.095 117.308 792.476 117.308 790.481C117.308 788.499 117.788 786.893 118.748 785.662C119.721 784.418 121.094 783.797 122.866 783.797ZM122.866 785.089C121.549 785.089 120.54 785.582 119.838 786.566C119.149 787.551 118.804 788.856 118.804 790.481C118.804 791.7 119.001 792.753 119.395 793.639L125.526 786.16C124.836 785.446 123.95 785.089 122.866 785.089ZM122.866 795.892C124.171 795.892 125.169 795.4 125.858 794.415C126.547 793.43 126.892 792.119 126.892 790.481C126.892 789.263 126.695 788.21 126.301 787.324L120.17 794.802C120.86 795.529 121.758 795.892 122.866 795.892ZM131.761 793.99L133.109 794.341L131.668 799.696L130.32 799.327L131.761 793.99ZM145.912 792.827V794.119H144.232V797H142.717V794.119H135.811V791.423C137.374 790.758 138.686 789.78 139.744 788.487C140.803 787.194 141.425 785.692 141.609 783.981H143.124C142.594 787.945 140.304 790.832 136.254 792.642V793.085L137.325 792.827H142.717V788.099H144.232V792.827H145.912ZM162.035 797H160.263L156.994 793.011C156.846 793.048 156.693 793.067 156.532 793.067H155.886V797H154.372V787.822H155.886V791.719H156.643L159.025 788.505C159.358 788.05 159.807 787.822 160.373 787.822H161.814V789.115H160.318L158.065 792.143L162.035 797ZM164.002 797V783.981H167.455C169.166 783.981 170.428 784.209 171.241 784.664C172.053 785.12 172.459 785.957 172.459 787.176C172.459 788.05 172.213 788.715 171.721 789.17C171.228 789.626 170.607 789.878 169.856 789.927V790.371C172.232 790.42 173.42 791.479 173.42 793.547C173.42 794.802 172.983 795.695 172.109 796.224C171.235 796.741 169.96 797 168.286 797H164.002ZM165.516 789.577H167.51C168.692 789.577 169.56 789.435 170.114 789.152C170.668 788.856 170.945 788.278 170.945 787.416C170.945 787.022 170.89 786.69 170.779 786.419C170.668 786.148 170.527 785.939 170.354 785.791C170.194 785.643 169.948 785.532 169.616 785.458C169.296 785.372 168.988 785.323 168.692 785.311C168.397 785.286 168.003 785.274 167.51 785.274H165.516V789.577ZM165.516 795.707H168.341C169.56 795.707 170.459 795.547 171.038 795.227C171.616 794.895 171.905 794.249 171.905 793.288C171.905 792.39 171.61 791.762 171.019 791.405C170.428 791.048 169.536 790.869 168.341 790.869H165.516V795.707Z" fill="url(#paint0_linear_143_152)" fill-opacity="0.14"/>
<path opacity="0.55" d="M854.715 346.275C856.145 346.275 857.25 346.78 858.03 347.79C858.81 348.79 859.2 350.095 859.2 351.705C859.2 353.325 858.81 354.64 858.03 355.65C857.25 356.65 856.145 357.15 854.715 357.15C853.275 357.15 852.16 356.65 851.37 355.65C850.59 354.64 850.2 353.325 850.2 351.705C850.2 350.095 850.59 348.79 851.37 347.79C852.16 346.78 853.275 346.275 854.715 346.275ZM854.715 347.325C853.645 347.325 852.825 347.725 852.255 348.525C851.695 349.325 851.415 350.385 851.415 351.705C851.415 352.695 851.575 353.55 851.895 354.27L856.875 348.195C856.315 347.615 855.595 347.325 854.715 347.325ZM854.715 356.1C855.775 356.1 856.585 355.7 857.145 354.9C857.705 354.1 857.985 353.035 857.985 351.705C857.985 350.715 857.825 349.86 857.505 349.14L852.525 355.215C853.085 355.805 853.815 356.1 854.715 356.1ZM861.939 354.555L863.034 354.84L861.864 359.19L860.769 358.89L861.939 354.555ZM873.434 353.61V354.66H872.069V357H870.839V354.66H865.229V352.47C866.499 351.93 867.564 351.135 868.424 350.085C869.284 349.035 869.789 347.815 869.939 346.425H871.169C870.739 349.645 868.879 351.99 865.589 353.46V353.82L866.459 353.61H870.839V349.77H872.069V353.61H873.434ZM886.531 357H885.091L882.436 353.76C882.316 353.79 882.191 353.805 882.061 353.805H881.536V357H880.306V349.545H881.536V352.71H882.151L884.086 350.1C884.356 349.73 884.721 349.545 885.181 349.545H886.351V350.595H885.136L883.306 353.055L886.531 357ZM888.128 357V346.425H890.933C892.323 346.425 893.348 346.61 894.008 346.98C894.668 347.35 894.998 348.03 894.998 349.02C894.998 349.73 894.798 350.27 894.398 350.64C893.998 351.01 893.493 351.215 892.883 351.255V351.615C894.813 351.655 895.778 352.515 895.778 354.195C895.778 355.215 895.423 355.94 894.713 356.37C894.003 356.79 892.968 357 891.608 357H888.128ZM889.358 350.97H890.978C891.938 350.97 892.643 350.855 893.093 350.625C893.543 350.385 893.768 349.915 893.768 349.215C893.768 348.895 893.723 348.625 893.633 348.405C893.543 348.185 893.428 348.015 893.288 347.895C893.158 347.775 892.958 347.685 892.688 347.625C892.428 347.555 892.178 347.515 891.938 347.505C891.698 347.485 891.378 347.475 890.978 347.475H889.358V350.97ZM889.358 355.95H891.653C892.643 355.95 893.373 355.82 893.843 355.56C894.313 355.29 894.548 354.765 894.548 353.985C894.548 353.255 894.308 352.745 893.828 352.455C893.348 352.165 892.623 352.02 891.653 352.02H889.358V355.95Z" fill="url(#paint1_linear_143_152)" fill-opacity="0.14"/>
<g filter="url(#filter1_f_143_152)">
<ellipse cx="1269.75" cy="814.123" rx="27.1867" ry="47.7049" transform="rotate(45.2338 1269.75 814.123)" fill="#0F1D40"/>
</g>
<g filter="url(#filter2_f_143_152)">
<ellipse cx="1112.78" cy="323.737" rx="27.1867" ry="47.7049" transform="rotate(45.2338 1112.78 323.737)" fill="#101E41" fill-opacity="0.15"/>
</g>
<path opacity="0.2" d="M680.021 805.196C678.521 805.196 677.312 804.736 676.393 803.818C675.475 802.899 675.016 801.603 675.016 799.929V792.795H675.923V799.841C675.923 801.272 676.289 802.388 677.021 803.19C677.754 803.981 678.765 804.376 680.056 804.376C681.323 804.376 682.317 803.998 683.038 803.242C683.759 802.475 684.12 801.37 684.12 799.929V792.795H685.027V799.824C685.027 801.533 684.573 802.859 683.666 803.8C682.759 804.731 681.544 805.196 680.021 805.196ZM692.539 805.213C691.26 805.213 690.185 804.76 689.313 803.853C688.441 802.946 688.005 801.847 688.005 800.557C688.005 799.278 688.441 798.185 689.313 797.278C690.196 796.359 691.272 795.9 692.539 795.9C693.923 795.9 695.103 796.452 696.08 797.557L695.487 798.167C694.533 797.191 693.545 796.702 692.522 796.702C691.534 796.702 690.685 797.08 689.976 797.836C689.278 798.592 688.929 799.498 688.929 800.557C688.929 801.626 689.284 802.539 689.993 803.295C690.702 804.039 691.568 804.411 692.592 804.411C693.65 804.411 694.632 803.905 695.539 802.894L696.167 803.452C695.132 804.626 693.923 805.213 692.539 805.213ZM701.718 805.178C700.381 805.178 699.172 804.736 698.09 803.853L698.614 803.155C699.567 803.969 700.59 804.376 701.683 804.376C702.311 804.376 702.869 804.202 703.357 803.853C703.857 803.492 704.107 803.056 704.107 802.545C704.107 802.022 703.886 801.609 703.445 801.306C703.003 800.993 702.398 800.836 701.631 800.836H700.41V800.068H701.648C702.288 800.068 702.817 799.911 703.235 799.597C703.654 799.283 703.863 798.859 703.863 798.324C703.863 797.859 703.66 797.481 703.253 797.191C702.846 796.9 702.334 796.754 701.718 796.754C700.637 796.754 699.712 797.057 698.945 797.661L698.439 796.981C699.369 796.295 700.468 795.952 701.735 795.952C702.666 795.952 703.41 796.173 703.968 796.615C704.526 797.057 704.805 797.627 704.805 798.324C704.805 799.301 704.328 799.987 703.375 800.382C704.479 800.766 705.032 801.492 705.032 802.562C705.032 803.283 704.718 803.899 704.09 804.411C703.474 804.922 702.683 805.178 701.718 805.178ZM713.574 801.272V800.382H721.492V801.272H713.574ZM713.574 797.347V796.458H721.492V797.347H713.574ZM735.208 805.213C733.697 805.213 732.476 804.603 731.546 803.382C730.627 802.149 730.168 800.655 730.168 798.9C730.168 797.772 730.371 796.731 730.778 795.778C731.185 794.824 731.778 794.057 732.557 793.476C733.348 792.883 734.243 792.586 735.243 792.586C736.755 792.586 737.97 793.202 738.888 794.435C739.818 795.656 740.283 797.144 740.283 798.9C740.283 800.027 740.08 801.068 739.673 802.022C739.266 802.975 738.667 803.748 737.877 804.341C737.098 804.922 736.208 805.213 735.208 805.213ZM732.261 802.754C733.028 803.847 734.022 804.393 735.243 804.393C736.464 804.393 737.452 803.853 738.208 802.771C738.964 801.679 739.342 800.388 739.342 798.9C739.342 797.411 738.958 796.127 738.191 795.045C737.423 793.952 736.429 793.406 735.208 793.406C733.987 793.406 732.999 793.947 732.243 795.028C731.488 796.109 731.11 797.4 731.11 798.9C731.11 800.376 731.493 801.661 732.261 802.754ZM742.558 806.87L742.349 806.434C743 806.108 743.326 805.684 743.326 805.161V805.004H742.855V803.521H744.006V804.812C744.006 805.358 743.895 805.789 743.674 806.103C743.453 806.417 743.081 806.672 742.558 806.87ZM748.173 805.004L753.719 793.668H746.638V792.795H754.731V793.458L749.167 805.004H748.173ZM763.969 800.155C763.167 800.155 762.504 799.493 762.504 798.69C762.504 797.888 763.167 797.225 763.969 797.225C764.771 797.225 765.434 797.888 765.434 798.69C765.434 799.493 764.771 800.155 763.969 800.155ZM778.869 805.196C777.369 805.196 776.16 804.736 775.242 803.818C774.323 802.899 773.864 801.603 773.864 799.929V792.795H774.771V799.841C774.771 801.272 775.137 802.388 775.869 803.19C776.602 803.981 777.613 804.376 778.904 804.376C780.171 804.376 781.166 803.998 781.886 803.242C782.607 802.475 782.968 801.37 782.968 799.929V792.795H783.875V799.824C783.875 801.533 783.421 802.859 782.514 803.8C781.607 804.731 780.392 805.196 778.869 805.196ZM787.463 805.004V796.109H788.318V800.068H794.23V796.109H795.085V805.004H794.23V800.836H788.318V805.004H787.463ZM805.881 803.835C805.009 804.754 803.922 805.213 802.62 805.213C801.318 805.213 800.231 804.76 799.359 803.853C798.498 802.934 798.068 801.835 798.068 800.557C798.068 799.289 798.504 798.196 799.376 797.278C800.26 796.359 801.353 795.9 802.655 795.9C803.957 795.9 805.038 796.359 805.899 797.278C806.771 798.185 807.207 799.278 807.207 800.557C807.207 801.824 806.765 802.917 805.881 803.835ZM802.655 804.411C803.643 804.411 804.492 804.033 805.201 803.277C805.922 802.521 806.282 801.615 806.282 800.557C806.282 799.487 805.922 798.58 805.201 797.836C804.492 797.08 803.631 796.702 802.62 796.702C801.62 796.702 800.765 797.08 800.056 797.836C799.347 798.58 798.992 799.487 798.992 800.557C798.992 801.626 799.347 802.539 800.056 803.295C800.765 804.039 801.632 804.411 802.655 804.411ZM810.183 805.004V796.109H810.95L814.578 801.219L818.206 796.109H818.973V805.004H818.118V797.592L814.543 802.51L811.003 797.592V805.004H810.183Z" fill="#197E6C"/>
<path opacity="0.35" d="M369.608 550.758C368.196 550.758 367.058 550.326 366.193 549.462C365.329 548.597 364.897 547.377 364.897 545.801V539.088H365.75V545.719C365.75 547.065 366.095 548.116 366.784 548.871C367.474 549.615 368.426 549.987 369.64 549.987C370.833 549.987 371.769 549.631 372.447 548.92C373.126 548.198 373.465 547.158 373.465 545.801V539.088H374.318V545.703C374.318 547.311 373.892 548.559 373.038 549.445C372.185 550.321 371.041 550.758 369.608 550.758ZM381.389 550.775C380.186 550.775 379.173 550.348 378.353 549.494C377.532 548.641 377.122 547.607 377.122 546.392C377.122 545.188 377.532 544.16 378.353 543.306C379.184 542.442 380.197 542.009 381.389 542.009C382.692 542.009 383.802 542.529 384.721 543.569L384.163 544.143C383.266 543.224 382.336 542.764 381.373 542.764C380.443 542.764 379.644 543.12 378.976 543.831C378.32 544.543 377.992 545.396 377.992 546.392C377.992 547.399 378.325 548.258 378.993 548.969C379.66 549.669 380.476 550.02 381.439 550.02C382.434 550.02 383.359 549.544 384.213 548.592L384.804 549.117C383.83 550.222 382.692 550.775 381.389 550.775ZM374.508 566.742C373.249 566.742 372.111 566.326 371.093 565.494L371.586 564.838C372.483 565.604 373.446 565.987 374.475 565.987C375.066 565.987 375.591 565.823 376.051 565.494C376.521 565.155 376.757 564.745 376.757 564.263C376.757 563.771 376.549 563.382 376.133 563.098C375.717 562.802 375.148 562.655 374.426 562.655H373.277V561.932H374.442C375.044 561.932 375.542 561.785 375.936 561.489C376.33 561.194 376.527 560.794 376.527 560.291C376.527 559.853 376.335 559.498 375.952 559.224C375.569 558.95 375.088 558.814 374.508 558.814C373.49 558.814 372.62 559.098 371.898 559.667L371.422 559.027C372.297 558.381 373.331 558.059 374.524 558.059C375.4 558.059 376.1 558.267 376.625 558.682C377.15 559.098 377.413 559.634 377.413 560.291C377.413 561.21 376.964 561.856 376.067 562.228C377.107 562.589 377.626 563.273 377.626 564.28C377.626 564.958 377.331 565.538 376.74 566.02C376.16 566.501 375.416 566.742 374.508 566.742Z" fill="white" fill-opacity="0.11"/>
<g filter="url(#filter3_f_143_152)">
<ellipse cx="445.641" cy="763.702" rx="52.9828" ry="47.7049" transform="rotate(45.2338 445.641 763.702)" fill="#0F1D40" fill-opacity="0.4"/>
</g>
<g filter="url(#filter4_f_143_152)">
<ellipse cx="740.943" cy="808.567" rx="52.9828" ry="67.7102" transform="rotate(45.2338 740.943 808.567)" fill="#0F1D40" fill-opacity="0.4"/>
</g>
<g filter="url(#filter5_f_143_152)">
<ellipse cx="916.225" cy="302.638" rx="52.9828" ry="68.9466" transform="rotate(45.2338 916.225 302.638)" fill="#142244" fill-opacity="0.15"/>
</g>
<g filter="url(#filter6_f_143_152)">
<ellipse cx="927.677" cy="727.074" rx="24.6066" ry="38.6731" transform="rotate(130.456 927.677 727.074)" fill="#0F1D40" fill-opacity="0.4"/>
</g>
<g filter="url(#filter7_f_143_152)">
<ellipse cx="877.001" cy="271.045" rx="21.5579" ry="13.8303" transform="rotate(45.2338 877.001 271.045)" fill="#0F1D40"/>
</g>
<g filter="url(#filter8_f_143_152)">
<ellipse cx="1322.4" cy="503.21" rx="102.591" ry="147.218" fill="white" fill-opacity="0.05"/>
</g>
<g filter="url(#filter9_f_143_152)">
<ellipse cx="1311.11" cy="700.698" rx="64.6324" ry="280.074" fill="#0F1D40"/>
</g>
<rect x="91.3047" y="1011.55" width="16.4146" height="16.4146" fill="white" fill-opacity="0.03"/>
<rect x="74.8906" y="1027.96" width="16.4146" height="16.4146" fill="white" fill-opacity="0.03"/>
<rect x="91.3047" y="1044.38" width="16.4146" height="16.4146" fill="white" fill-opacity="0.03"/>
<rect x="107.721" y="1011.55" width="16.4146" height="16.4146" fill="white" fill-opacity="0.03"/>
<rect x="74.8906" y="874.077" width="16.4146" height="16.4146" fill="white" fill-opacity="0.03"/>
<rect x="536.553" y="1036.17" width="16.4146" height="16.4146" fill="white" fill-opacity="0.03"/>
<rect x="536.553" y="1019.76" width="16.4146" height="16.4146" fill="white" fill-opacity="0.03"/>
<rect x="520.137" y="1019.76" width="16.4146" height="16.4146" fill="white" fill-opacity="0.01"/>
<g opacity="0.1">
<line x1="30.1026" y1="-4.9423e-09" x2="30.1026" y2="1080" stroke="white" stroke-opacity="0.5" stroke-width="0.205182"/>
<line x1="92.1026" y1="-4.9423e-09" x2="92.1026" y2="1080" stroke="white" stroke-opacity="0.5" stroke-width="0.205182"/>
<line x1="155.103" y1="-4.9423e-09" x2="155.103" y2="1080" stroke="white" stroke-opacity="0.5" stroke-width="0.205182"/>
<line x1="217.103" y1="-4.9423e-09" x2="217.103" y2="1080" stroke="white" stroke-opacity="0.5" stroke-width="0.205182"/>
<line x1="280.103" y1="-4.9423e-09" x2="280.103" y2="1080" stroke="white" stroke-opacity="0.5" stroke-width="0.205182"/>
<line x1="343.103" y1="-4.9423e-09" x2="343.103" y2="1080" stroke="white" stroke-opacity="0.5" stroke-width="0.205182"/>
<line x1="405.103" y1="-4.9423e-09" x2="405.103" y2="1080" stroke="white" stroke-opacity="0.5" stroke-width="0.205182"/>
<line x1="468.103" y1="-4.9423e-09" x2="468.103" y2="1080" stroke="white" stroke-opacity="0.5" stroke-width="0.205182"/>
<line x1="530.103" y1="-4.9423e-09" x2="530.103" y2="1080" stroke="white" stroke-opacity="0.5" stroke-width="0.205182"/>
<line x1="593.103" y1="-4.9423e-09" x2="593.103" y2="1080" stroke="white" stroke-opacity="0.5" stroke-width="0.205182"/>
<line x1="656.103" y1="-4.9423e-09" x2="656.103" y2="1080" stroke="white" stroke-opacity="0.5" stroke-width="0.205182"/>
<line x1="718.103" y1="-4.9423e-09" x2="718.103" y2="1080" stroke="white" stroke-opacity="0.5" stroke-width="0.205182"/>
<line x1="781.103" y1="-4.9423e-09" x2="781.103" y2="1080" stroke="white" stroke-opacity="0.5" stroke-width="0.205182"/>
<line x1="843.103" y1="-4.9423e-09" x2="843.103" y2="1080" stroke="white" stroke-opacity="0.5" stroke-width="0.205182"/>
<line x1="906.103" y1="-4.9423e-09" x2="906.103" y2="1080" stroke="white" stroke-opacity="0.5" stroke-width="0.205182"/>
<line x1="968.103" y1="-4.9423e-09" x2="968.103" y2="1080" stroke="white" stroke-opacity="0.5" stroke-width="0.205182"/>
<line x1="1031.1" y1="-4.9423e-09" x2="1031.1" y2="1080" stroke="white" stroke-opacity="0.5" stroke-width="0.205182"/>
<line x1="1094.1" y1="-4.9423e-09" x2="1094.1" y2="1080" stroke="white" stroke-opacity="0.5" stroke-width="0.205182"/>
<line x1="1156.1" y1="-4.9423e-09" x2="1156.1" y2="1080" stroke="white" stroke-opacity="0.5" stroke-width="0.205182"/>
<line x1="1219.1" y1="-4.9423e-09" x2="1219.1" y2="1080" stroke="white" stroke-opacity="0.5" stroke-width="0.205182"/>
<line x1="1281.1" y1="-4.9423e-09" x2="1281.1" y2="1080" stroke="white" stroke-opacity="0.5" stroke-width="0.205182"/>
<line x1="1344.1" y1="-4.9423e-09" x2="1344.1" y2="1080" stroke="white" stroke-opacity="0.5" stroke-width="0.205182"/>
<line opacity="0.5" x1="1407.1" y1="-4.9423e-09" x2="1407.1" y2="1080" stroke="white" stroke-opacity="0.5" stroke-width="0.205182"/>
<line x1="1438" y1="1031.1" y2="1031.1" stroke="white" stroke-opacity="0.07" stroke-width="0.205182"/>
<line opacity="0.55" x1="1438" y1="144.103" x2="4.7587e-09" y2="144.103" stroke="white" stroke-opacity="0.5" stroke-width="0.205182"/>
<line opacity="0.55" x1="1438" y1="24.1026" x2="4.82123e-09" y2="24.1026" stroke="white" stroke-opacity="0.5" stroke-width="0.205182"/>
<line opacity="0.55" x1="1438.33" y1="205.285" x2="-0.000122066" y2="205.285" stroke="white" stroke-opacity="0.5" stroke-width="0.205182"/>
<line opacity="0.55" x1="1438.33" y1="267.866" x2="-0.000122066" y2="267.866" stroke="white" stroke-opacity="0.5" stroke-width="0.205182"/>
<line opacity="0.55" x1="1438.33" y1="330.446" x2="-0.000122066" y2="330.446" stroke="white" stroke-opacity="0.5" stroke-width="0.205182"/>
<line opacity="0.55" x1="1438.33" y1="393.027" x2="-0.000122066" y2="393.027" stroke="white" stroke-opacity="0.5" stroke-width="0.205182"/>
<line opacity="0.55" x1="1438.33" y1="455.607" x2="-0.000122066" y2="455.607" stroke="white" stroke-opacity="0.5" stroke-width="0.205182"/>
<line opacity="0.55" x1="1438.33" y1="518.188" x2="-0.000122066" y2="518.188" stroke="white" stroke-opacity="0.5" stroke-width="0.205182"/>
<line opacity="0.55" x1="1438.33" y1="580.769" x2="-0.000122066" y2="580.769" stroke="white" stroke-opacity="0.5" stroke-width="0.205182"/>
<line opacity="0.55" x1="1438.33" y1="643.349" x2="-0.000122066" y2="643.349" stroke="white" stroke-opacity="0.5" stroke-width="0.205182"/>
<line opacity="0.55" x1="1438.33" y1="705.93" x2="-0.000122066" y2="705.93" stroke="white" stroke-opacity="0.5" stroke-width="0.205182"/>
<line opacity="0.55" x1="1438.33" y1="768.511" x2="-0.000122066" y2="768.51" stroke="white" stroke-opacity="0.5" stroke-width="0.205182"/>
<line opacity="0.55" x1="1438.33" y1="831.091" x2="-0.000122066" y2="831.091" stroke="white" stroke-opacity="0.5" stroke-width="0.205182"/>
<line opacity="0.55" x1="1438.33" y1="893.672" x2="-0.000122066" y2="893.672" stroke="white" stroke-opacity="0.5" stroke-width="0.205182"/>
<line opacity="0.55" x1="1438.33" y1="956.252" x2="-0.000122066" y2="956.252" stroke="white" stroke-opacity="0.5" stroke-width="0.205182"/>
</g>
<path d="M141 779H228V866H141V779Z" fill="#4F75D6" fill-opacity="0.03"/>
<rect x="162" y="145" width="61" height="60" fill="white" fill-opacity="0.01"/>
<rect x="406" y="206" width="61" height="60" fill="#F1F1F1" fill-opacity="0.01"/>
<rect x="1399" y="656" width="39" height="60" fill="#F1F1F1" fill-opacity="0.03"/>
<rect x="101" y="206" width="61" height="60" fill="white" fill-opacity="0.01"/>
<rect x="1376" y="717" width="61" height="60" fill="#F1F1F1" fill-opacity="0.03"/>
<rect x="1348" y="144" width="61" height="61" fill="white" fill-opacity="0.02"/>
<rect x="1407" y="205" width="33" height="63" fill="white" fill-opacity="0.02"/>
<rect x="1409" y="144" width="31" height="61" fill="white" fill-opacity="0.02"/>
<rect x="467" y="266" width="41" height="41" fill="#FCFCFC" fill-opacity="0.01"/>
<rect x="843" y="629" width="41" height="41" fill="#FCFCFC" fill-opacity="0.01"/>
<defs>
<filter id="filter0_f_143_152" x="369.329" y="-175.431" width="1286.49" height="832.014" filterUnits="userSpaceOnUse" color-interpolation-filters="sRGB">
<feFlood flood-opacity="0" result="BackgroundImageFix"/>
<feBlend mode="normal" in="SourceGraphic" in2="BackgroundImageFix" result="shape"/>
<feGaussianBlur stdDeviation="128.239" result="effect1_foregroundBlur_143_152"/>
</filter>
<filter id="filter1_f_143_152" x="1176.12" y="720.664" width="187.243" height="186.918" filterUnits="userSpaceOnUse" color-interpolation-filters="sRGB">
<feFlood flood-opacity="0" result="BackgroundImageFix"/>
<feBlend mode="normal" in="SourceGraphic" in2="BackgroundImageFix" result="shape"/>
<feGaussianBlur stdDeviation="27.3537" result="effect1_foregroundBlur_143_152"/>
</filter>
<filter id="filter2_f_143_152" x="1019.16" y="230.279" width="187.243" height="186.918" filterUnits="userSpaceOnUse" color-interpolation-filters="sRGB">
<feFlood flood-opacity="0" result="BackgroundImageFix"/>
<feBlend mode="normal" in="SourceGraphic" in2="BackgroundImageFix" result="shape"/>
<feGaussianBlur stdDeviation="27.3537" result="effect1_foregroundBlur_143_152"/>
</filter>
<filter id="filter3_f_143_152" x="340.541" y="658.56" width="210.2" height="210.285" filterUnits="userSpaceOnUse" color-interpolation-filters="sRGB">
<feFlood flood-opacity="0" result="BackgroundImageFix"/>
<feBlend mode="normal" in="SourceGraphic" in2="BackgroundImageFix" result="shape"/>
<feGaussianBlur stdDeviation="27.3537" result="effect1_foregroundBlur_143_152"/>
</filter>
<filter id="filter4_f_143_152" x="625.378" y="693.123" width="231.128" height="230.889" filterUnits="userSpaceOnUse" color-interpolation-filters="sRGB">
<feFlood flood-opacity="0" result="BackgroundImageFix"/>
<feBlend mode="normal" in="SourceGraphic" in2="BackgroundImageFix" result="shape"/>
<feGaussianBlur stdDeviation="27.3537" result="effect1_foregroundBlur_143_152"/>
</filter>
<filter id="filter5_f_143_152" x="799.964" y="186.507" width="232.52" height="232.261" filterUnits="userSpaceOnUse" color-interpolation-filters="sRGB">
<feFlood flood-opacity="0" result="BackgroundImageFix"/>
<feBlend mode="normal" in="SourceGraphic" in2="BackgroundImageFix" result="shape"/>
<feGaussianBlur stdDeviation="27.3537" result="effect1_foregroundBlur_143_152"/>
</filter>
<filter id="filter6_f_143_152" x="868.784" y="670.356" width="117.786" height="113.436" filterUnits="userSpaceOnUse" color-interpolation-filters="sRGB">
<feFlood flood-opacity="0" result="BackgroundImageFix"/>
<feBlend mode="normal" in="SourceGraphic" in2="BackgroundImageFix" result="shape"/>
<feGaussianBlur stdDeviation="12.7038" result="effect1_foregroundBlur_143_152"/>
</filter>
<filter id="filter7_f_143_152" x="804.211" y="198.194" width="145.581" height="145.703" filterUnits="userSpaceOnUse" color-interpolation-filters="sRGB">
<feFlood flood-opacity="0" result="BackgroundImageFix"/>
<feBlend mode="normal" in="SourceGraphic" in2="BackgroundImageFix" result="shape"/>
<feGaussianBlur stdDeviation="27.3537" result="effect1_foregroundBlur_143_152"/>
</filter>
<filter id="filter8_f_143_152" x="1055.66" y="191.845" width="533.473" height="622.728" filterUnits="userSpaceOnUse" color-interpolation-filters="sRGB">
<feFlood flood-opacity="0" result="BackgroundImageFix"/>
<feBlend mode="normal" in="SourceGraphic" in2="BackgroundImageFix" result="shape"/>
<feGaussianBlur stdDeviation="82.0729" result="effect1_foregroundBlur_143_152"/>
</filter>
<filter id="filter9_f_143_152" x="1082.34" y="256.478" width="457.557" height="888.44" filterUnits="userSpaceOnUse" color-interpolation-filters="sRGB">
<feFlood flood-opacity="0" result="BackgroundImageFix"/>
<feBlend mode="normal" in="SourceGraphic" in2="BackgroundImageFix" result="shape"/>
<feGaussianBlur stdDeviation="82.0729" result="effect1_foregroundBlur_143_152"/>
</filter>
<linearGradient id="paint0_linear_143_152" x1="115" y1="783" x2="115" y2="801" gradientUnits="userSpaceOnUse">
<stop stop-color="white"/>
<stop offset="0.975898" stop-color="white" stop-opacity="0"/>
</linearGradient>
<linearGradient id="paint1_linear_143_152" x1="873" y1="346" x2="873" y2="360" gradientUnits="userSpaceOnUse">
<stop stop-color="white"/>
<stop offset="0.975898" stop-color="white" stop-opacity="0"/>
</linearGradient>
</defs>
</svg>
