<svg width="25" height="25" fill="none" xmlns="http://www.w3.org/2000/svg"><g clip-path="url(#clip0_37_935)" clip-rule="evenodd"><path fill-rule="evenodd" d="M1.017 17.126s-1.58-2.814-.801-7.295c.779-4.48 4.61-7.335 4.61-7.335l.88 1.204S2.483 5.614 1.74 9.75c-.744 4.138.601 6.694.601 6.694l-1.323.681zM6.146 1.615l.802 1.242 1.162-.601L7.63.933l-1.484.682zm3.448.16l-.4-1.363s2.908-.87 5.811-.08c2.904.79 4.492 1.835 5.572 3.006-.003-.011 0-1.804 0-1.804h1.563v4.53h-4.57V4.62h2.085s-1.287-1.737-4.249-2.646c-2.962-.909-5.812-.2-5.812-.2zM23.37 7.257s1.58 2.815.801 7.294c-.779 4.48-4.606 7.334-4.606 7.334l-.881-1.202s3.222-1.915 3.965-6.052c.743-4.137-.6-6.692-.6-6.692l1.321-.682zm-5.128 15.51l-.801-1.243-1.162.601.481 1.323 1.482-.681zm-3.445-.16l.4 1.362s-2.906.87-5.807.08c-2.902-.79-4.49-1.834-5.568-3.005.002.01 0 1.803 0 1.803H2.26v-4.529h4.566v1.443H4.743s1.286 1.736 4.246 2.645c2.96.91 5.808.2 5.808.2z" fill="#fff" fill-opacity=".5"/><path d="M13.303 19.29l-4.838-8.8h2.681V4.98l4.75 8.802h-2.594v5.508z" stroke="#fff" stroke-opacity=".5" stroke-width="1.443"/></g><defs><clipPath id="clip0_37_935"><path fill="#fff" transform="matrix(1 0 0 -1 0 24.381)" d="M0 0h24.385v24.381H0z"/></clipPath></defs></svg>