<svg width="12" height="12" viewBox="0 0 12 12" fill="none" xmlns="http://www.w3.org/2000/svg">
<g opacity="0.59" clip-path="url(#clip0_158_2305)">
<path fill-rule="evenodd" clip-rule="evenodd" d="M5.994 0.000244141C2.682 0.000244141 0 2.68824 0 6.00024C0 9.31224 2.682 12.0002 5.994 12.0002C9.312 12.0002 12 9.31224 12 6.00024C12 2.68824 9.312 0.000244141 5.994 0.000244141ZM6 10.8002C3.348 10.8002 1.2 8.65224 1.2 6.00024C1.2 3.34824 3.348 1.20024 6 1.20024C8.652 1.20024 10.8 3.34824 10.8 6.00024C10.8 8.65224 8.652 10.8002 6 10.8002ZM5.868 3.00024H5.832C5.592 3.00024 5.4 3.19224 5.4 3.43224V6.26424C5.4 6.47424 5.508 6.67224 5.694 6.78024L8.184 8.27424C8.388 8.39424 8.652 8.33424 8.772 8.13024C8.898 7.92624 8.832 7.65624 8.622 7.53624L6.3 6.15624V3.43224C6.3 3.19224 6.108 3.00024 5.868 3.00024Z" fill="black"/>
</g>
<defs>
<clipPath id="clip0_158_2305">
<rect width="12" height="12" fill="white"/>
</clipPath>
</defs>
</svg>
